<?xml version="1.0" encoding="UTF-8"?>
<svg id="Calque_1" data-name="Calque 1" xmlns="http://www.w3.org/2000/svg" xmlns:xlink="http://www.w3.org/1999/xlink" viewBox="0 0 1556.83 3601.43">
  <defs>
    <radialGradient id="radial-gradient" cx="507.85" cy="1502.54" fx="507.85" fy="1502.54" r="51.42" gradientTransform="translate(-41.76 -2063.63) scale(1.53 1.76)" gradientUnits="userSpaceOnUse">
      <stop offset="0" stop-color="#f08270"/>
      <stop offset=".78" stop-color="#f5a79a"/>
    </radialGradient>
    <radialGradient id="radial-gradient-2" cx="-779.67" cy="1509.31" fx="-779.67" fy="1509.31" r="51.42" gradientTransform="translate(-142.62 -2063.63) rotate(-180) scale(1.48 -1.76)" xlink:href="#radial-gradient"/>
  </defs>
  <ellipse cx="778.42" cy="3498.49" rx="778.42" ry="102.94" style="fill: #999;"/>
  <g>
    <g>
      <path d="M1483.85,589.26c-74.72,124.3-211.71,148-344.85,153.45,0,0-16.93.72-45.22,1.44-2.05.12-4.23.12-6.41.24-29.38.84-69.52,1.7-115.1,2.3h-5.08c-8.34.12-16.93.12-25.63.24-33.62.12-69.29.12-105.32-.37-5.8,0-11.6-.11-17.42-.23h-4.84c-41.1-.73-82.1-2.06-120.55-4.36-6.77-.35-13.41-.72-19.95-1.21-70.25-4.71-129.49-12.57-160.45-25.27,0,0-21.65-5.31-53.56-17.04-4-1.45-8.24-3.15-12.58-4.84-11.97-4.71-25.03-10.16-38.7-16.56-52.23-24.43-113.17-61.55-155.85-114.51-5.92-7.38-11.48-15.12-16.56-23.1-10.04-15.48-18.51-32.28-24.66-50.3-5.33-15.11-9.08-31.2-11.01-48.13-.37-2.77-.49-5.56-.49-8.22,0-29.38,18.63-49.69,44.99-63.71,1.09-.73,2.17-1.33,3.26-1.82,2.89-1.45,5.92-2.79,8.94-3.98,52-22.62,125.39-25.88,159.37-26.97,64.45-1.93,128.05,3.51,192.01,10.39,8.46.86,17.05,1.82,25.5,2.66,1.58.12,3.28.37,4.84.49h.12c3.15.35,6.29.6,9.43.84,10.16.72,20.31,1.21,30.48,1.33h.84c61.91.37,123.58-10.64,184.4-22.24h.12c4.35-.86,8.57-1.7,12.93-2.54,13.06-2.54,25.99-4.96,38.93-7.38,4.84-.84,9.55-1.82,14.27-2.91h.12c11.73-2.17,23.34-4.59,34.95-7.26,9.92-2.17,19.82-4.47,29.75-6.89,17.41-4.1,34.83-8.47,52.11-13.06,23.47-6.17,47.04-12.69,70.14-19.82q.11-.12.23-.12c4.36-1.33,8.95-3.15,13.79-5.08,4.35-1.7,8.94-3.63,13.53-5.44v-.12c.86-.24,1.58-.61,2.42-.96,1.58-.61,3.03-1.21,4.61-1.82,2.89-1.21,5.8-2.17,8.7-3.26,3.15-.96,6.29-1.94,9.31-2.66,4.36-1.21,8.46-1.93,12.46-2.05,39.05-1.94,79.44,2.54,117.77,13.53,2.79.73,5.45,1.58,8.22,2.42,84.29,25.89,157.32,82.71,182.95,170.5,14.51,49.94,20.31,108.46-7.26,154.4Z" style="fill: #e97f39;"/>
      <path d="M609.69,1084.8s-151.55,234.51-211.32,371.47l123.21,67.44,88.11-438.91Z" style="fill: #fbdad4;"/>
      <path d="M1191.89,1552.59c-.04-.23.4-7.96.12-17.53-.06,1.51-.12,2.4-.12,2.39-1.74-11.16-3.51-22.3-5.28-33.39-2.07-3.96-4.89-6.3-8.74-5.77,3.15-2.56,5.61-2.89,7.55-1.74-21.63-135.63-42.33-263.31-15.25-334.77,0,0,14.93-54.14,57.65-76.96,0,0-38.44-108.72-345.84-104.08-6.75.11-196.56-3.1-272.28,104.08-27.49,38.88-50.89,169.76-69.55,320.73-31.32,187.98-45.52,298.44-30.89,503.85.76,10.68-.86,28.41.23,35.41l-.23,32.76s-18.07,20.54-14.05,21.75c0,0,.04,0,.07-.04,2.23-1.1,45.67-21.87,71.92-12.6,26.98,9.49,141.14,26.94,223.61,19.02,82.47-7.92,142.75,12.67,174.44,6.68,31.73-6.02,112.59-38.41,134.83-9.86,19.6,25.19,81.74,15.26,96.05,12.6.29-.04.55-.11.8-.15.51-.11,1.02-.18,1.53-.33.26-.04.44-.07.55-.07.04-.04.07-.04.07-.04,2.99-.58,6.02-1.21,9.02-1.86,7.81-38.33,18.51-99.01,14.93-129.09-5.22-43.85-27.49-305.47-31.14-330.99Z" style="fill: #fbdad4;"/>
      <path d="M1174.51,1539.86c.07.47.15.95.22,1.42-.11-.62-.18-1.1-.22-1.42Z" style="fill: #247bb6;"/>
      <rect x="804.28" y="787.67" width="168.65" height="297.13" rx="18.29" ry="18.29" style="fill: #f18a8b;"/>
      <path d="M1308.16,264.36s-61.23,7.99-116.27,34.58c-55.03,26.61-627.57,114.18-696.63,84.23-69.07-29.93-247.4-15.91-247.4-15.91,2.89-1.45,5.92-2.79,8.94-3.98,52-22.62,125.39-25.88,159.37-26.97,64.45-1.93,128.05,3.51,192.01,10.39,8.46.86,17.05,1.82,25.5,2.66,1.58.12,3.28.37,4.84.49h.12c3.15.35,6.29.6,9.43.84,10.16.72,20.31,1.21,30.48,1.33h.84c61.91.37,123.58-10.64,184.4-22.24h.12c4.35-.86,8.57-1.7,12.93-2.54,13.06-2.54,25.99-4.96,38.93-7.38,4.84-.84,9.55-1.82,14.27-2.91h.12c11.73-2.17,23.34-4.59,34.95-7.26,9.92-2.17,19.82-4.47,29.75-6.89,17.41-4.1,34.83-8.47,52.11-13.06,23.47-6.17,47.04-12.69,70.14-19.82q.11-.12.23-.12c4.36-1.33,8.95-3.15,13.79-5.08,4.35-1.7,8.94-3.63,13.53-5.44v-.12c.86-.24,1.58-.61,2.42-.96,1.58-.61,3.03-1.21,4.61-1.82,2.89-1.21,5.8-2.17,8.7-3.26,3.15-.96,6.29-1.94,9.31-2.66,4.36-1.21,8.46-1.93,12.46-2.05,39.05-1.94,79.44,2.54,117.77,13.53,2.79.73,5.45,1.58,8.22,2.42Z" style="fill: #ce6b28;"/>
      <path d="M1165.19,498.75c-11.4,57.22-26.34,122.84-35.38,193.59-2.23,17.96-4.13,36.2-5.51,54.72-14.22,193.45-297.43,173.28-431.24,126.9-64.74-22.45-83.16-120.27-84.93-215.32-1.11-61.06,4.65-121.06,9.44-158.96,3.08-25.01,5.77-40.47,5.77-40.47,0,0-23.24-108.62,1.38-146.18,23.04-35.16,44.87-20.68,32.38-25.63,0,0,50.26,34.04,55.97-32.51,5.57-64.7,43.94-61.05,47.48-59.77-2.29-1.5-49.34,32.97-16.38-72.84,34.14-109.87,229.3-15.91,321.82,24.35,92.53,40.18,56.94,100.53,101.05,171.79,23.2,37.48,14.09,100.68-1.84,180.34Z" style="fill: #442713;"/>
      <path d="M1125.74,488.61s-24.2,188.8-89.66,190.35c-65.47,1.55-160.83-75.83-239.11-30.95-78.28,44.88-152.29,4.64-155.13-103.68-2.85-108.33-4.27-213.56,82.55-277.01l66.89-38.69s96.16,134.65,224.87,85.11c0,0,25.62,126.9,109.59,174.87Z" style="fill: #f5a79a;"/>
      <path d="M1129.81,692.34c9.04-70.75,23.98-136.37,35.38-193.59,13.43-1,33.29,1.78,46.33,22.37,20.38,32.21,30.08,145.42-81.71,171.22Z" style="fill: #f5a79a;"/>
      <path d="M608.13,658.63c-63.56-35.41-54.98-114.93-39.12-139.94,14.35-22.66,37.81-21.16,48.56-19.02-4.78,37.91-10.55,97.9-9.44,158.96Z" style="fill: #e9887c;"/>
      <ellipse cx="736.15" cy="578.59" rx="86.11" ry="81.13" style="fill: url(#radial-gradient);"/>
      <ellipse cx="766.25" cy="528.13" rx="22.09" ry="30.07" style="fill: #33354a;"/>
      <path d="M864.2,496.35c-.06.16-.1.32-.13.49-.38,2.03.72,4.04,1.83,5.92,8.08,13.71,18.34,27.87,15.78,42.73-2.33,13.5-14.93,24.8-19.79,37.92-3.07,8.29-2.79,17.21.52,25.44,1.36,3.37,11.74,22,17.62,10.96,1.31-2.45.28-5.27-1.41-7.6-1.69-2.32-4-4.38-5.52-6.76-3.68-5.78-2.15-12.72,1.24-18.6,3.39-5.88,8.49-11.13,12.19-16.91,7.44-11.59,8.97-24.98,6.2-37.65-2.77-12.68-9.65-24.7-18.31-35.8-1.14-1.46-2.58-3.04-4.81-3.31-2.5-.3-4.77,1.34-5.41,3.18Z" style="fill: #f18a8b;"/>
      <path d="M830.53,727.35c.8.98,1.5,2.06,2.27,3.06,4.18,5.42,10.58,8.79,17.22,10.49,6.63,1.7,13.55,1.86,20.4,1.86,7.16,0,14.39-.17,21.4-1.77,6.99-1.6,13.8-4.72,18.77-9.89,1.83-1.9,3.65-4.2,6.26-4.53,3.34-.42,6.27,2.98,6.29,6.34.03,6.42-6.63,10.09-11.48,12.76-5.68,3.13-11.74,5.56-17.99,7.3-12.54,3.48-25.85,4.15-38.69,2.05-6.71-1.1-13.38-2.94-19.29-6.3-5.92-3.35-11.06-8.31-13.85-14.51-.77-1.72-1.37-3.59-1.18-5.47s1.31-3.76,3.09-4.38c1.84-.64,3.92.19,5.39,1.49.51.45.97.96,1.4,1.49Z" style="fill: #d64543;"/>
      <ellipse cx="1014.96" cy="590.48" rx="83.46" ry="81.13" style="fill: url(#radial-gradient-2);"/>
      <ellipse cx="985.4" cy="528.13" rx="22.09" ry="30.07" style="fill: #33354a;"/>
      <path d="M811.92,432.09c-14.72,5.14-29.88-3.42-44.79-1.25-15.41,2.24-30.01,9.76-40.25,21.59-5.12,5.91-11.4,13.58-18.91,11.38-4.33-1.27-7.11-5.8-7.46-10.3-.35-4.5,1.31-8.92,3.45-12.89,9.11-16.91,27.06-27.82,45.82-31.93,18.76-4.12,38.35-2.15,57.17,1.64,5.16,1.04,11.02,2.8,13.05,7.66,2.29,5.49-2.15,11.91-7.74,13.97-.11.04-.22.08-.34.12Z" style="fill: #33354a;"/>
      <path d="M940.19,432.09c14.72,5.14,29.88-3.42,44.79-1.25,15.41,2.24,30.01,9.76,40.25,21.59,5.12,5.91,11.4,13.58,18.91,11.38,4.33-1.27,7.11-5.8,7.46-10.3.35-4.5-1.31-8.92-3.45-12.89-9.11-16.91-27.06-27.82-45.82-31.93-18.76-4.12-38.35-2.15-57.17,1.64-5.16,1.04-11.02,2.8-13.05,7.66-2.29,5.49,2.15,11.91,7.74,13.97.11.04.22.08.34.12Z" style="fill: #33354a;"/>
      <g>
        <path d="M1227.53,2115.01c-3.44,8.15-6.57,16.4-8.69,24.93-6.29,25.18-3.59,51.63-.86,77.44.76,7.19,2.09,15.35,8.16,19.27,8.2,5.3,19.71-1.36,23.52-10.36,3.82-8.99,2.54-19.19,2.42-28.96-.2-16.78,3.28-33.59,10.13-48.91,9.62,4.33,15.86,14.25,18.09,24.56,2.23,10.31.97,21.05-.97,31.41-5.25,28.13-15.44,55.33-29.96,79.99-4.2,7.14-11,17.66-4.84,25.18,6.55,7.99,21.72,4.99,29.75,1.84,15.19-5.96,28.2-16.53,39.3-28.49,34.22-36.86,51.4-86.78,58.35-136.59,6.95-49.81,4.55-100.38,4.67-150.67-32.97-3.07-66.4-1.15-98.8,5.67-6.52,1.37-13.25,3.06-18.36,7.33-12.21,10.18-9.87,28.99-11.18,44.83-1.79,21.7-12.21,41.32-20.73,61.53Z" style="fill: #f5a79a;"/>
        <path d="M1274.29,2311.41s51.5-48.04,55.25-129.43c0,0,4.18-13.03,11.04-12.37,0,0,2.18,7.56-1.05,20.82-3.23,13.27-6.86,76.33-65.24,120.98Z" style="fill: #f18a8b;"/>
      </g>
      <path d="M1372.75,2031.15c-24.01,2.42-48.03,4.84-72.05,7.25-16.22,1.63-51.48,14.3-54.86-9.17-2.96-20.58-2.04-41.52-2.21-62.26-.17-20.96-3.85-40.84-6.22-61.53-2.75-24-5.42-48.01-8.11-72.01-6.35-56.59-12.83-113.16-19.98-169.66-5.34-42.17-11.04-84.29-17.43-126.32,16.14.11,32.82-1.9,49.43-5.33,42.46-8.76,83.79-30.17,115.99-46.52,14.2,144.94,38.3,432.45,15.44,545.55Z" style="fill: #f5a79a;"/>
      <path d="M509.37,2138.48c.18.22.15.37-.04.44-.11.04-.11-.11.04-.44Z" style="fill: #f5a79a;"/>
      <path d="M1308.17,264.37c-2.78-.85-5.44-1.69-8.22-2.42-38.33-11-78.72-15.48-117.77-13.54-3.99.12-8.1.85-12.45,2.06-3.02.73-6.17,1.69-9.31,2.66-2.9,1.09-5.8,2.06-8.71,3.26-1.57.6-3.02,1.21-4.59,1.81-.85.36-1.57.73-2.42.97v.12c-4.59,1.81-9.19,3.75-13.54,5.44-4.84,1.93-9.43,3.75-13.78,5.08q-.12,0-.24.12c-23.1,7.13-46.67,13.66-70.13,19.83-17.29,4.59-34.7,8.95-52.11,13.06-9.91,2.42-19.83,4.72-29.74,6.89-11.61,2.66-23.22,5.08-34.94,7.25h-.12c-4.72,1.09-9.43,2.06-14.27,2.9-12.94,2.42-25.88,4.84-38.93,7.38-4.35.85-8.59,1.69-12.94,2.54h-.12c-60.82,11.61-122.49,22.61-184.4,22.25h-.85c-10.16-.12-20.31-.61-30.47-1.33-3.14-.24-6.29-.48-9.43-.85h-.12c-1.57-.12-3.26-.36-4.84-.48-8.46-.85-17.05-1.81-25.51-2.66-12.33-1.33-24.67-2.54-36.88-3.75-1.57-.12-3.02-.24-4.47-.48-6.41-.6-12.82-1.09-19.23-1.69l-4.72-.36c-2.18-.12-4.23-.36-6.41-.48-7.38-.61-14.87-1.09-22.37-1.57-.48-.12-.97-.12-1.45-.12-.24,0-.36,0-.6-.12-2.3-.12-4.72-.24-7.01-.36-5.2-.24-10.28-.61-15.48-.73-1.21-.12-2.42-.12-3.51-.12-6.89-.36-13.78-.61-20.56-.73h-1.81c-1.45,0-2.9,0-4.23-.12-4.59-.12-9.19-.12-13.78-.12h-4.72c-8.22,0-16.57.12-24.79.36-33.98,1.09-107.37,4.35-159.37,26.96-3.02,1.21-6.05,2.54-8.95,3.99,2.06-1.21,4.23-2.42,6.29-3.51,110.64-61.55,240.74-47.4,240.74-47.4,40.99,4.72,82.1,6.77,122.37,6.53,7.01,0,14.03-.12,20.92-.36.12.12.12,0,.12,0,.36.12.6.12.97,0,3.02,0,5.92-.12,8.83-.24,4.35-.12,8.71-.24,13.06-.48,7.13-.24,14.27-.61,21.28-1.09h.48c3.14-.12,6.41-.36,9.55-.6,3.14-.12,6.29-.36,9.43-.73h.12c3.39-.12,6.77-.36,10.04-.73,3.63-.24,7.13-.48,10.76-.85.97-.12,1.93-.12,2.9-.24.12,0,.36,0,.48-.12,5.8-.48,11.49-1.09,17.17-1.69,10.16-.97,20.07-2.06,29.99-3.39,5.08-.6,10.04-1.21,14.99-1.93,5.08-.6,10.04-1.33,14.99-2.18.85,0,1.81-.12,2.66-.36,3.63-.48,7.26-1.09,10.88-1.69,2.78-.36,5.44-.85,8.1-1.21,5.08-.73,10.04-1.57,14.99-2.42,12.45-2.18,24.55-4.35,36.27-6.65h.12c7.86-1.45,15.36-3.02,22.73-4.59,2.42-.6,4.72-1.09,7.01-1.57,5.08-1.09,9.92-2.18,14.75-3.14,12.94-2.9,25.03-5.8,36.52-8.58,6.89-1.81,13.54-3.51,19.95-5.08,4.35-1.21,8.46-2.3,12.45-3.39,3.99-1.09,7.74-2.18,11.49-3.14h.12c.24-.12.48-.12.73-.24l4.23-1.21c17.65-4.96,31.56-9.31,40.99-12.33l6.89-2.18c3.14-.97,5.32-1.81,6.53-2.3h.12c.12,0,.24-.12.36-.12h.12c.36-.12.61-.24.61-.24,4.47-1.45,8.95-2.66,13.42-3.87.97-.24,1.93-.6,2.9-.73,5.44-1.45,11-2.78,16.32-3.99,13.42-3.02,26.36-5.08,38.69-6.41.97-.12,1.81-.24,2.78-.24.12-.12.24,0,.24,0,.85-.12,1.69-.24,2.42-.36h.12c.36,0,.6,0,.97-.12h.36c101.93-9.43,164.32,29.99,167.83,32.16l.12.12Z" style="fill: #f9b665;"/>
      <path d="M1163.26,230.73c-19.89,1.75-41.7,3.52-64.56,8.55-.12.04-.24.07-.38.1-6.21,1.37-12.5,2.99-18.86,4.93-.37.11-.56.16-.56.16l-.07.03c-1.22.42-18.75,6.47-48.51,15.03-4.82,1.37-9.96,2.83-15.41,4.33-134.24.96-304.4-38.64-368.09-54.72,19.13-51.85,37.68-104.11,46.88-135.65,0,0,10.42-24.61,43.88-45.34,38.17-23.66,106.33-42.29,223.22-13.56,0,0,40.27,8.25,104.98,3.6,0,0,37.01-1.64,61.01,74.35l36.46,138.19Z" style="fill: #f5a23d;"/>
      <path d="M1163.26,230.73c-2.21-.26-4.65-.37-7.24-.37-28.63,0-77.11,14.1-77.11,14.1l-49.81,14.95-13.79,4.13c-83.88,23.63-240.78,59.85-411.05,60.63,11.62-30.41,27.31-72.26,42.8-114.29,58.46-15.4,113.72-24.01,164.8-27.9,211.41-16.1,351.41,48.74,351.41,48.74Z" style="fill: #f4e295;"/>
      <path d="M1201.3,2830.95c16.25,129.06-.65,269.54-4.96,411.63h-178.1s-106.81-527.1-119.71-629.37c-2-16.02-4.16-39.79-6.3-68.48-3.59-47.35-7.27-108.17-10.67-169.73-.84-15.35-1.67-30.75-2.46-46-.01-.04-.01-.08-.01-.12-.31-5.83-.61-11.62-.91-17.38v-.11c-4.02-77.79-7.31-149.55-9.06-188.41-.15-3.25-.3-6.28-.41-9.06-.37-8.51-.61-14.67-.76-18.14-.11-2.04-.15-3.1-.15-3.1h-12.77c3.36,2.73,1.43,11.13.39,30.3-1.98,37.14-10.79,105.58-21.17,188.41-.01.11-.03.22-.04.33-.6,4.77-1.2,9.59-1.81,14.46-4.78,38.2-9.81,79.15-14.62,121.26l-12.01,114.37c-.11.95-.22,1.94-.29,2.88-5.8,62.37-10.19,124.17-11.73,180.61-7.15,266.41,32.09,519.48,32.09,519.48h-206.63s-69-406.57-83.28-576.84c-1.9-22.85-4.09-52.64-6.39-87.18-.37-5.37-.73-10.88-1.1-16.47,0,0-6.48-93.93-14.1-219.92-1.67-27.5-3.38-56.53-5.1-86.45h0c-5.15-89.78-10.29-187.5-13.9-275.8-1.43-27.23-2.24-43.11-2.24-43.11v-15.94c-1.05-30.65-1.83-59.46-2.31-85.58,63.69-69.65,86.8-169.46,86.8-169.46,15.8-192.39,60.37-424.94,61.07-428.56.01-.03.01-.04.01-.04h459.73l20.14,455.16s2.06,89.62,74.87,144.84l-1.17,66.93,16.02-3.03s-4.92,75.06-10.58,173.17c-3.57,62.37-7.45,134.07-10.52,201.69-.87,18.76-1.66,37.22-2.36,55.06l-2.92,167.99c.26,6.36.61,11.64,1.09,15.84,3.91,34.11,11.14,158.67,18.33,293.85Z" style="fill: #2b6f9a;"/>
      <g>
        <path d="M55.35,1137.18c46.88,37.63,96.97,58.31,145.46,68.03,19.76,3.99,39.29,6.23,58.14,6.98,24.59-1.74,46.65-4.49,66.41-7.97,86.63-15.45,125.46-44.11,125.46-44.11-1.38-117.37,76.29-425.86,102.94-528.53-4.6-42.36-37,11.46-37,11.46-32.63,56.07-88.01,419.38-88.01,419.38-28.95,23.42-52.62,29.65-71.46,27.41h-.69c-58.37,4.24-75.37-51.33-75.37-51.33-11.03-93.94,54.69-431.6,59.97-458.76l2.07.25c-.69-.75-1.15-1.49-1.61-1.99-3.45-3.24-7.58-2.49-11.49,0-6.66,4.24-12.64,13.21-12.64,13.21-45.96,82.98-89.85,461-89.85,461-15.4,33.64-39.52,36.63-61.35,29.4h-.69c-32.86-1-73.99-38.37-73.99-38.37-14.94-131.57,52.85-400.2,70.54-467.23-7.58-13.46-24.59,2.74-24.59,2.74-103.4,265.63-82.26,558.43-82.26,558.43Z" style="fill: #85909e;"/>
        <path d="M281.23,1038.5s17,55.57,75.37,51.33c-35.85-4.24-53.31-37.63-53.31-37.63-10.34-68.53,45.04-425.86,45.04-425.86,1.15-26.41-1.38-40.12-5.05-46.35l-2.07-.25c-5.28,27.16-71,364.81-59.97,458.76Z" style="fill: #536376;"/>
        <path d="M349.18,579.74c.24-1.25.49-1.74.49-1.74h-12.24l11.75,1.74Z" style="fill: #9fa1a4;"/>
        <path d="M91.65,1043.24s41.13,37.38,73.99,38.37c-26.42-8.72-49.17-31.65-49.17-31.65-26.66-84.97,49.86-442.31,49.86-442.31,1.15-16.94-.69-26.41-4.14-31.65-17.69,67.03-85.48,335.66-70.54,467.23Z" style="fill: #536376;"/>
        <path d="M230.95,1353.83v2119.6c0,30.65,14.98,55.57,33.23,55.57,7.12,0,13.65-3.74,19.13-10.22-1.63.5-3.26.75-4.89.75-18.24,0-33.22-24.92-33.22-55.32V1363.79c-4.45-2.49-9.2-5.98-14.24-9.97Z" style="fill: #8a6240;"/>
        <path d="M297.37,1358.61v17.05l-3.09,72.67-42.73,111.46,6.5,34.31,12.04,14.07,16.3,1.49,10.98,2.98v1860.78c0,18.65-5.65,35.38-14.07,45.39-1.6.43-3.3.75-4.9.75-18.22,0-33.25-24.93-33.25-55.41V1363.84c.32.21.53.32.85.53h.11c22.06,12.25,36.87,7.03,45.61-.11,1.39-1.06,2.66-2.24,3.73-3.41,0,0,.21,0,.21-.32.53-.43,1.17-1.17,1.71-1.92Z" style="fill: #8a6240;"/>
        <path d="M258.94,1212.19c22.98,1,45.27,0,66.18-2.24,87.55-9.47,151.43-41.62,151.43-41.62-19.07-101.67,76.52-500.37,76.52-500.37,1.61-16.45,1.61-28.16.69-36.38-26.65,102.67-104.32,411.16-102.94,528.53,0,0-38.83,28.66-125.46,44.11-19.76,3.49-41.82,6.23-66.41,7.97Z" style="fill: #536376;"/>
        <path d="M217.35,1205.21v152.75c1.87,1.25,3.73,2.49,5.41,3.49,47.02,30.15,72.77,15.45,83.59,4.73,4.29-4.48,6.34-8.22,6.34-8.22l5.6-148.02c-16.98,2.24-35.08,3.24-53.73,2.24-15.3-.75-31.16-2.99-47.2-6.98Z" style="fill: #85909e;"/>
        <path d="M318.29,1205.41s-70.23,16.18-100.94,2.75v11.87s64.66,7.04,100.55.3l.39-14.91Z" style="fill: #536376;"/>
        <ellipse cx="262.32" cy="1256.93" rx="12.69" ry="13.76" style="fill: #646565;"/>
        <ellipse cx="262.32" cy="1315.04" rx="12.69" ry="13.76" style="fill: #646565;"/>
      </g>
      <polygon points="297.37 1539.33 297.37 1612.64 286.39 1609.66 270.09 1608.17 258.05 1594.1 251.55 1559.79 294.28 1448.33 290.01 1551.27 297.37 1539.33" style="fill: #89603d;"/>
      <polygon points="297.37 1440.45 297.37 1539.33 290.01 1551.27 294.28 1448.33 297.37 1440.45" style="fill: #89603d;"/>
      <polygon points="297.37 1375.66 297.37 1440.45 294.28 1448.33 297.37 1375.66" style="fill: #89603d;"/>
      <path d="M309.09,1245.67h.32l3.2,3.09s8.84,12.15-3.3,18.43l-5.54.75s15.13,11.83,8.42,23.66c0,0-3.62,7.78-6.29,9.16,0,0,5.54,13.75,5.97,21.84,0,0,1.17,11.51-5.97,15.13,0,0,4.16,17.37-4.37,21.84l-3.52,1.81,1.07-25.57v-2.02l1.49-34.52v-.75l1.07-25.04c.11-.32.11-.53.11-.85l1.39-33.14.11.21c.75,1.28,3.73,5.97,5.86,5.97Z" style="fill: #dcd2d3;"/>
      <path d="M333.38,1281.68s-6.39,21.63-6.39,22.48,5.43,29.41-7.88,60.42l-3.41,28.13,9.38,10.76s4.9,53.7,4.9,55.2-17.26,55.62-17.26,55.62l-15.34,25.04v-163.67l.11-2.56.21-4.69c14.07-7.99,11.72-25.89,11.72-25.89,10.12-13.11,0-38.36,0-38.36,12.47-14.28,2.88-33.46,2.88-33.46,11.72-20.14-2.88-25.04-2.88-25.04,0,0,4.48-19.82,7.78-25.25.21-.32.43-.75.75-1.07.53-.64,1.07-1.17,1.7-1.49,0,0,9.38-8.42,15.77,3.94l3.41,22.16-5.43,37.72Z" style="fill: #f18a8b;"/>
      <path d="M312.18,1291.59s-3.62,7.78-6.29,9.16c0,0,5.54,13.75,5.97,21.84,0,0,1.17,11.51-5.97,15.13,0,0,4.16,17.37-4.37,21.84l-3.52,1.81-.32.21-5.43,2.77-17.69-2.56-28.88,2.56-7.25,12.57-7.25,62.55s-16.09-13.85-22.06-25.68l-7.03-34.31s-11.83-11.08-9.91-26.96c0,0-8.95-13.53-2.24-32.82,0,0-8.84-23.02,8.52-40.38l25.47-56.9s6.82-18.01,27.6-12.36l34.1,12.36,17.47,17.05.11.21,6.18,5.97,3.2,3.09s8.84,12.15-3.3,18.43l-5.54.75s15.13,11.83,8.42,23.66Z" style="fill: #f5a79a;"/>
      <path d="M546.61,1530.49s-50.47,102.67-108.9,110.64c-58.43,7.97-140.34-28.48-140.34-28.48v-73.31s47.71-106.4,18.33-146.62c0,0,59.74,46.55,98.4,35.92l132.51,101.85Z" style="fill: #fbdad4;"/>
      <path d="M1098.42,1259.45s-6.22-218.24,27.32-248.08l6.71,2.45s-41.33-22.95-77.8-20.91c0,0-33.94,51.32-31.13,266.55h74.89Z" style="fill: #2b6f9a;"/>
      <path d="M848.76,3539.52h-124.74c-20.53-1.35-16.4-19.19-16.4-19.19-21.97-10.98-53.47,19.19-53.47,19.19h-176.82c-30.16-2.74-34.24-16.46-34.24-16.46v-43.83c2.73-93.23,53.43-38.41,119.22-76.77,0,0,67.52-87.1,40.95-175.64-26.56-88.54-81.45-416.13-81.45-416.13,0,0,10.35-1.11,27.58-2.62,50.9-4.47,161.9-12.49,243.5-5.88,21.35,1.73,40.68,4.46,56.4,8.51,0,0-27.96,371.64-5.96,454.1,16.7,62.57,19.87,177.34,20.42,229.05.07.29.09.45.09.45v11.17c.04,9.42,0,14.88,0,14.88,2.73,17.84-15.1,19.19-15.1,19.19Z" style="fill: #2e3535;"/>
      <path d="M848.76,3539.52h-124.73c-20.53-1.35-16.41-19.18-16.41-19.18-21.96-10.98-53.47,19.18-53.47,19.18h-176.81c-30.16-2.73-34.24-16.45-34.24-16.45v-24.32c50.94,1.3,114.59,2.99,135.67,3.79,37.02,1.35,83.59-19.22,116.49-24.69,32.9-5.47,154.89,0,154.89,0,12.33,6.86,13.71,16.45,13.71,16.45v26.04c2.74,17.84-15.1,19.18-15.1,19.18Z" style="fill: #e3af1a;"/>
      <path d="M776.8,988.48s-44.27,124.96-25.68,199.78l132.21-84.23-106.54-115.55Z" style="fill: #d99087;"/>
      <path d="M1226.02,3435.23c2.54,23.28,5.1,46.54,7.64,69.81h-238.98s1.49-13.63,3.56-31.65c2.5-21.8,5.84-49.99,8.38-68.18,4.63-39.24,9.52-83.96,9.82-100.48.6-31.88-94.44-496.69-94.44-496.69,0,0,3.66-.72,10.33-1.86,36.02-6.16,159.85-24.42,267.34-5.57,11.55,2.02,22.92,4.48,33.98,7.43-.24,3.56-.5,11.55-.75,15.11-3.87,55.81-7.58,111.61-11.16,167.44-4.78,75.01-9.47,150.05-12.9,225.14-1.63,35.87-2.96,72.15,1.3,107.9,2.7,22.75,6.5,45.34,9.96,67.99,2.21,14.5,4.31,29.01,5.9,43.6Z" style="fill: #2e3535;"/>
      <path d="M638.69,1259.45s50.8-223.75,62.58-244.64c0,0,47.64-21.46,75.53-26.33l-60.15,273.64-77.96-2.66Z" style="fill: #2b6f9a;"/>
      <path d="M1232.88,3489.33c.15.44.15.88.15,1.33,0,1.23-.29,2.46-.74,3.59-1.03,2.56-3.15,4.77-6,6.58-4.13,2.65-9.83,4.23-16.17,4.23h-193.31c-10.66,0-19.61-4.62-22.16-10.81-.44-1.13-.74-2.36-.74-3.59,0-.44,0-.88.15-1.33-.05-.05,0-.1,0-.15-.05-1.13-.15-2.26-.15-3.39,0-14.84,6.88-28.7,18.72-40.34,21.23-20.93,58.43-34.79,100.83-34.79,46.29,0,86.48,16.56,106.29,40.74,8.5,10.32,13.27,22.01,13.27,34.4,0,1.13-.1,2.26-.15,3.39,0,.05.05.1,0,.15Z" style="fill: #212828;"/>
      <rect x="985.37" y="3496.71" width="260.29" height="42.8" rx="4.37" ry="4.37" style="fill: #e3af1a;"/>
      <path d="M1219.76,3451.39c-23.09,15.97-59.11,26.24-99.65,26.24-45.4,0-85.21-12.87-107.47-32.19,21.23-20.93,58.43-34.79,100.83-34.79,46.29,0,86.48,16.56,106.29,40.74Z" style="fill: #414848;"/>
      <path d="M832.4,2326.18c-4.78,38.2-9.81,79.15-14.62,121.26l-12.01,114.37c-.11.95-.22,1.94-.29,2.88-5.8,62.37-10.19,124.17-11.73,180.61-.52,19.05-.79,38.05-.86,56.88-81.6-6.6-192.6,1.41-243.5,5.88-5.94-45.75-10.71-87.32-13.46-120.12-1.9-22.85-4.09-52.64-6.39-87.18-.37-5.37-.73-10.88-1.1-16.47,0,0-6.48-93.93-14.1-219.92,9.36,54.32,33.7,116.76,95.33,131.12,110.95,25.86,198.59,5.48,222.72-169.32Z" style="fill: #135f88;"/>
      <path d="M1199.67,2800.61c-107.49-18.85-231.32-.58-267.34,5.57-16.39-86.6-29.74-160.8-33.79-192.96-2-16.02-4.16-39.79-6.3-68.48-3.59-47.35-7.27-108.17-10.67-169.73-.84-15.35-1.67-30.75-2.46-46,3.18,36.55,17.41,118.83,80.97,137.28,82.34,23.9,203.13,20.93,214.43-74.98l11.31-95.9,1.36,2.8c-.87,18.76-1.66,37.22-2.36,55.06l-2.92,167.99c.26,6.36.61,11.64,1.09,15.84,3.61,31.54,10.07,140.42,16.7,263.51Z" style="fill: #135f88;"/>
      <path d="M1153.05,1161.83s-37.13,71.21-21.19,199.55c15.94,128.34,89.72,537.38,89.72,537.38,0,0-3.93-201.46-33.54-357.49-29.61-156.03-61.02-246.28-34.99-379.45Z" style="fill: #f2bdb4;"/>
      <path d="M883.34,1104.03l121.89,84.23s47.82-64-1.77-202.65l-120.12,118.43Z" style="fill: #d99087;"/>
      <path d="M1118.56,1714.61s25.06,127.49,109.26,148.74l-40.64,434.86-68.62-583.6Z" style="fill: #2b6f9a;"/>
      <path d="M697.12,1353.83s-49.85,261.62,49.45,297.04c99.29,35.41,255.12,10.62,263.97-85,8.85-95.62,15.43-207.25,15.43-207.25l-328.85-4.79Z" style="fill: #377fa6;"/>
      <path d="M804.28,986.66s36.9,106.59,84.33,94.47c47.43-12.12,84.33-98.18,84.33-98.18v-9.1s22.86-2.46,30.53,11.75c7.67,14.22,31.07,112.79,4.02,188.93l-124.15-70.5-128.85,70.5s1.95-141.03,22.31-186.06c0,0,8.32-6.77,27.48-7.89v6.07Z" style="fill: #f2bdb4;"/>
      <path d="M1227.81,1084.82s125.04,167.63,149.11,507.61c24.07,339.98,16.1,413.98,16.1,413.98h-159.37s-45.15-502.65-71.71-613.7c-26.56-111.05-51.52-277.65,65.87-307.9Z" style="fill: #fbdad4;"/>
    </g>
    <path d="M1029.09,259.41l49.75-14.92c-1.22.42-18.75,6.47-48.51,15.03-.42-.04-.83-.07-1.24-.11Z" style="fill: #f4e295;"/>
    <path d="M1156.02,230.36c2.6,0,5.03.11,7.24.37-19.89,1.75-41.7,3.52-64.56,8.55,16.67-4.02,40.44-8.91,57.31-8.91Z" style="fill: #f4e295;"/>
    <path d="M1126.8,92.54l36.46,138.19s-140-64.84-351.41-48.74c-47.34-36.69-75.7-83.35-75.7-134.15,0-6.63.49-13.21,1.44-19.69,38.17-23.66,106.33-42.29,223.22-13.56,0,0,40.27,8.25,104.98,3.6,0,0,37.01-1.64,61.01,74.35Z" style="fill: #fdcb71;"/>
    <path d="M1163.26,230.73c-2.21-.26-4.65-.37-7.24-.37-28.63,0-77.11,14.1-77.11,14.1l-49.81,14.95c-87.47-7.84-164.25-36.39-217.24-77.42,211.41-16.1,351.41,48.74,351.41,48.74Z" style="fill: #fdf6be;"/>
  </g>
</svg>