<svg viewBox="0 0 479 511.915" xmlns="http://www.w3.org/2000/svg" xmlns:xlink="http://www.w3.org/1999/xlink" fill-rule="evenodd" clip-rule="evenodd" overflow="hidden"><style>
.MsftOfcThm_Text2_Fill_v2 {
 fill:#1F497D; 
}
</style>
<path d="M28.947 139.549 169.426 139.549C177.396 139.549 184.637 142.803 189.877 148.044 195.118 153.284 198.372 160.525 198.372 168.495L198.372 246.029 234.328 246.029 234.328 67.753C234.328 59.783 237.583 52.541 242.824 47.301 248.064 42.061 255.305 38.806 263.275 38.806L333.431 38.806C338.955 38.806 343.433 43.284 343.433 48.808 343.433 54.332 338.955 58.81 333.431 58.81L263.275 58.81C260.825 58.81 258.59 59.82 256.966 61.444 255.285 63.1134 254.337 65.3836 254.333 67.753L254.333 246.029 333.503 246.029C339.027 246.029 343.505 250.507 343.505 256.031 343.505 261.555 339.027 266.033 333.503 266.033L254.333 266.033 254.333 444.309C254.337 446.678 255.285 448.949 256.966 450.618L256.947 450.637C258.627 452.312 260.903 453.253 263.275 453.252L333.503 453.252C339.027 453.252 343.505 457.73 343.505 463.254 343.505 468.778 339.027 473.256 333.503 473.256L263.275 473.256C255.332 473.256 248.105 470.001 242.862 464.761L242.844 464.741 242.824 464.761C237.583 459.52 234.328 452.279 234.328 444.309L234.328 266.033 198.372 266.033 198.372 364.934C198.372 372.904 195.118 380.145 189.877 385.386 184.637 390.626 177.396 393.881 169.426 393.881L28.947 393.881C20.977 393.881 13.736 390.626 8.495 385.386 3.255 380.145 0 372.904 0 364.934L0 168.495C0 160.525 3.255 153.284 8.495 148.044 13.736 142.803 20.977 139.549 28.947 139.549ZM367.764 414.525 467.147 414.525C473.666 414.525 479 419.861 479 426.378L479 500.062C479 506.578 473.664 511.915 467.147 511.915L367.764 511.915C361.248 511.915 355.912 506.581 355.912 500.062L355.912 426.378C355.912 419.859 361.245 414.525 367.764 414.525ZM367.764 207.336 467.147 207.336C473.666 207.336 479 212.672 479 219.189L479 292.873C479 299.389 473.664 304.726 467.147 304.726L367.764 304.726C361.248 304.726 355.912 299.392 355.912 292.873L355.912 219.189C355.912 212.67 361.245 207.336 367.764 207.336ZM367.764-2.84217e-14 467.147-2.84217e-14C473.666 0 479 5.336 479 11.853L479 85.536C479 92.053 473.664 97.389 467.147 97.389L367.764 97.389C361.248 97.389 355.912 92.056 355.912 85.536L355.912 11.853C355.912 5.334 361.245 0 367.764 0ZM178.368 257.04C178.334 256.705 178.317 256.368 178.318 256.031 178.318 255.691 178.334 255.353 178.368 255.022L178.368 168.495C178.364 166.126 177.416 163.855 175.735 162.186 174.066 160.505 171.795 159.557 169.426 159.553L28.947 159.553C26.497 159.553 24.262 160.562 22.637 162.186 20.9556 163.855 20.0082 166.126 20.004 168.495L20.004 364.934C20.0082 367.303 20.9556 369.574 22.637 371.243 24.262 372.867 26.497 373.877 28.947 373.877L169.426 373.877C171.876 373.877 174.111 372.867 175.735 371.243 177.416 369.574 178.364 367.303 178.368 364.934L178.368 257.04Z" class="MsftOfcThm_Text2_Fill_v2" stroke="none" stroke-width="1" stroke-linecap="butt" stroke-linejoin="miter" stroke-miterlimit="4" fill="#1F497D" fill-rule="nonzero" fill-opacity="1"/></svg>