<svg viewBox="0 0 511.999 511.999" xmlns="http://www.w3.org/2000/svg" xmlns:xlink="http://www.w3.org/1999/xlink" id="Layer_1" fill="#000000" xml:space="preserve" overflow="hidden"><g><g><path d="M388.831 193.63 384.276 187.376 326.422 187.376C338.542 174.424 345.214 157.612 345.214 139.81 345.214 101.394 313.96 70.141 275.543 70.141 237.126 70.141 205.872 101.395 205.872 139.81 205.872 157.612 212.542 174.426 224.664 187.376L164.08 187.376 159.525 193.629C142.3 217.274 132.959 245.146 132.427 274.386L96.048 378.996 132.403 378.996 132.403 453.202 199.582 453.202 199.582 512 366.012 512 366.012 385.034C397.846 358.021 415.951 319.076 415.951 277.024 415.952 246.823 406.573 217.986 388.831 193.63ZM275.541 100.557C297.186 100.557 314.794 118.166 314.794 139.809 314.794 150.032 310.899 159.686 303.816 167.036L303.626 167.225C298.224 172.608 293.894 178.845 290.748 185.654L290.748 141.428 260.331 141.428 260.331 185.655C257.186 178.846 252.854 172.608 247.453 167.225L247.278 167.051C240.187 159.699 236.286 150.041 236.286 139.809 236.289 118.166 253.897 100.557 275.541 100.557ZM341.587 365.657 335.596 370.222 335.596 481.582 229.999 481.582 229.999 422.784 162.82 422.784 162.82 348.578 138.83 348.578 162.82 279.591 162.82 277.022C162.82 255.838 168.692 235.513 179.866 217.792L237.609 217.792 313.474 217.792 368.489 217.792C379.663 235.514 385.536 255.839 385.536 277.022 385.535 312.072 369.516 344.378 341.587 365.657Z" stroke="none" stroke-width="1" stroke-linecap="butt" stroke-linejoin="miter" stroke-miterlimit="4" fill="#1E5F97" fill-opacity="1"/></g></g><g><g><rect x="135.732" y="124.599" width="49.996" height="30.417" stroke="none" stroke-width="1" stroke-linecap="butt" stroke-linejoin="miter" stroke-miterlimit="4" fill="#1E5F97" fill-opacity="1"/></g></g><g><g><rect x="179.149" y="33.629" width="30.417" height="49.995" stroke="none" stroke-width="1" stroke-linecap="butt" stroke-linejoin="miter" stroke-miterlimit="4" fill="#1E5F97" fill-opacity="1" transform="matrix(0.7071 -0.7071 0.7071 0.7071 15.4707 154.603)"/></g></g><g><g><rect x="331.726" y="43.413" width="49.995" height="30.417" stroke="none" stroke-width="1" stroke-linecap="butt" stroke-linejoin="miter" stroke-miterlimit="4" fill="#1E5F97" fill-opacity="1" transform="matrix(0.7071 -0.7071 0.7071 0.7071 63.0305 269.411)"/></g></g><g><g><rect x="365.361" y="124.599" width="49.996" height="30.417" stroke="none" stroke-width="1" stroke-linecap="butt" stroke-linejoin="miter" stroke-miterlimit="4" fill="#1E5F97" fill-opacity="1"/></g></g><g><g><rect x="260.33" y="0" width="30.417" height="49.996" stroke="none" stroke-width="1" stroke-linecap="butt" stroke-linejoin="miter" stroke-miterlimit="4" fill="#1E5F97" fill-opacity="1"/></g></g></svg>