<?xml version="1.0" encoding="UTF-8"?>
<svg id="Layer_1" data-name="Layer 1" xmlns="http://www.w3.org/2000/svg" viewBox="0 0 1000 1000">
  <g id="Objects">
    <path d="M260.18,888.12c-4.27-9.09-12.34-16.58-21.16-21.16-10.17-5.29-21.37-6.89-32.65-4.86-12.32,2.23-22.52,10.01-30.4,19.43-13.89,16.6-19.58,41.45-11.11,61.79,9.3,22.31,33.09,31.17,55.8,25.29,22.73-5.88,39.16-23.93,43.37-46.95.07-.36.12-.73.15-1.09,1.55-11.04.79-22.22-4.01-32.45ZM236.66,937.23s.03-.04,0,0h0ZM241.15,929.48c.19-.51.58-1.29,0,0h0ZM241.13,929.51c-.07.15-.14.32-.24.52-.56,1.23-1.13,2.43-1.75,3.63.08-.27-1.38,2.13-1.79,2.65-.36.47-.75.92-1.13,1.38-.15.16-.3.32-.4.4-1.04.89-2.04,1.81-3.11,2.65-.08-.02-2.46,1.52-2.83,1.72-1.43.79-3.19,1.58-3.48,1.69-12.91,4.92-29.3,3.68-37.83-8.48-4.18-5.97-6.06-13.05-5.9-20.29.14-6.42,1.82-12.08,5.24-17.71.09-.1.74-1.07.81-1.16.57-.75,1.11-1.53,1.69-2.27,1.37-1.74,1.38-1.77,2.43-2.71,2.5-2.22,4.32-3.94,7.28-5.16,6.71-2.78,14.58-2.04,21.26.34,14.89,5.3,23.93,20.16,21.6,35.26-.32,1.74-.67,3.46-1.13,5.16-.22.8-.45,1.6-.71,2.39Z"/>
  </g>
</svg>