<?xml version="1.0" encoding="UTF-8"?>
<svg id="Layer_1" data-name="Layer 1" xmlns="http://www.w3.org/2000/svg" viewBox="0 0 1000 1000">
  <g id="Objects">
    <g>
      <path d="M236.66,937.23s.03-.04,0,0h0ZM241.15,929.48c.19-.51.58-1.29,0,0h0Z"/>
      <path d="M334.13,740.49c-13.53-5.65-29.61-5.75-43.56-1.62-13.99,4.14-26.84,13.28-35.11,25.33-8.78,12.8-11.38,29.31-8.99,44.49,2.16,11.97,6.08,23.53,13.9,33.07,8.12,9.91,18.51,16.98,30.42,21.62,25.51,9.93,58.97,6.86,76.23-16.57,16.89-22.93,14.57-54.75-.17-78.07-7.8-12.34-19.22-22.61-32.72-28.25ZM349.8,825.96c-3.65,8.65-10.3,15.97-18.99,19.67-4.38,1.87-8.39,2.73-12.94,3.07-2.45.18-4.45.18-6.1.04-1.19-.1-2.38-.24-3.56-.42-.44-.06-3.53-.66-3.29-.57-2.46-.6-4.88-1.42-7.24-2.32-.91-.35-1.82-.71-2.72-1.1-.14-.1-1.82-.93-2.14-1.1-1.06-.58-2.1-1.19-3.13-1.84-.67-.42-1.34-.86-1.99-1.32.98.77.89.71-.26-.19-1.8-1.48-3.53-3.03-5.15-4.71-.64-.67-1.71-1.95-3.14-4.06-.66-.97-1.29-1.97-1.89-2.98-.12-.2-1.15-2.15-1.11-2.01-2.15-4.41-3.78-9.38-4.65-14.18-1.66-10.52-1.01-21.46,3.52-31.22,3.84-8.27,11.56-15.08,19.42-19.47,8.13-4.54,17.35-6.01,25.64-4.81,4.21.61,6.89,1.63,10.86,4.03,3,1.82,7.63,6.16,10.2,9.37,12.53,15.69,16.54,37.4,8.65,56.11Z"/>
    </g>
  </g>
</svg>