<?xml version="1.0" encoding="UTF-8"?>
<svg id="Layer_1" data-name="Layer 1" xmlns="http://www.w3.org/2000/svg" viewBox="0 0 1000 1000">
  <g id="Objects">
    <path d="M855.26,153.66c-15.98-8.36-33.94-12.78-51.92-12.84-13.49-27.31-35.56-50.82-62.89-64.52-30.1-15.09-65.79-18.07-98.19-9.13-9.25,2.55-18.12,5.98-26.56,10.23-15.71-15.94-34.74-28.88-56.01-35.97-26.64-8.89-54.49-8.6-80.86,1.13-10.09,3.72-19.73,9.03-28.3,15.65-28.98-22.17-67.59-31.08-104.04-27.97-50.02,4.27-96.62,31.31-124.85,72.82-10.06,14.79-17.68,30.68-22.91,47.42-6.79,1.87-13.68,5.42-19.44,8.19-8.92,4.29-17.55,9.18-25.63,14.89-15.21,10.73-28.89,24.02-39.51,39.34-22.87,33-31.12,73.2-25.68,112.77,2.97,21.62,10.36,42.24,21.38,61.05-14.69,38.1-18.56,80.34-6.57,119.81,14.87,48.92,51.91,90.09,102.5,102.6,17.05,4.22,34.53,5.23,51.61,2.86,13.89,21.8,34.84,39.42,58.77,49.2,27.58,11.27,57.19,11.98,85.55,3.08,14.09-4.43,27.48-11.46,39.33-20.33,30.99,21.25,68.78,32.66,106.38,31.38,46.15-1.58,89.52-21.8,121.39-55.13,8.15-8.53,15.44-17.84,21.79-27.76,40.17,3.62,80.71-8.67,111.9-34.53,34.55-28.65,51.96-72.37,52.12-116.67.05-14.61-1.98-29.22-5.96-43.28,35.56-29.45,58.86-72.47,63.64-118.51,4.95-47.71-12.26-102.33-57.05-125.76ZM874.07,334.92c-8.32,16.73-19.23,31.42-32.33,43.51-1.98-4.56-4.17-9.03-6.59-13.38-2.72-4.91-8.9-7.64-13.51-3.42-4.68,4.29-4.8,12.52-1.89,17.78,2.56,4.62,4.79,9.34,6.73,14.13-1.19,2.84-1.34,5.95.62,8.63.89,1.21,2.02,2.03,3.28,2.55,8.2,27.65,6.54,57.23-4.45,84.57-13.72,34.15-43.36,59.14-77.84,71.04-14.07,4.85-29.2,7.41-44.21,7.4,1.98-4.48,3.78-9.04,5.39-13.68,1.88-5.4.78-13.65-4.88-16.43-5.81-2.86-11,2.48-12.77,7.55-2.83,8.12-6.45,16.1-10.75,23.77-1.56,1.41-2.68,3.36-3.29,5.6-4.56,7.4-9.77,14.44-15.52,20.97-13.5,15.3-29.52,27.82-47.63,37.26-37.18,19.38-82.01,22.22-121.72,9.03-14.75-4.9-28.73-11.73-41.48-20.43-1.08-1.56-2.59-2.57-4.29-3.04-5.71-4.18-11.16-8.75-16.28-13.71-4.49-4.35-10.75-1.75-13.6,3.08-3.06,5.19-3.14,13.39,1.43,17.82,1.77,1.71,3.58,3.37,5.42,5.01-17.23,10.34-37.06,16.17-57.35,15.96-24.69-.25-48.46-9.9-67.61-25.2-5.77-4.61-11.02-9.9-15.73-15.64,2.59-.93,5.16-1.94,7.71-3.04,5.52-2.38,9.92-9.71,8.55-15.7-1.46-6.39-7.93-7.08-13.06-4.87-5.76,2.49-11.71,4.37-17.76,5.7-2-.36-4.3.22-6.35,1.21-34.96,5.45-72.51-6.97-98.65-30.85-34.24-31.28-49.39-79.26-44.49-124.77,1.56-14.52,5.18-28.65,10.36-42.21,3.92-2.08,6.27-5.73,4.33-10.39,4.02-8.89,8.68-17.5,13.89-25.75,2.91-4.6,2.32-12.37-3.38-14.45-6.3-2.29-12.19,3.01-15.24,7.84-2.14,3.38-4.17,6.83-6.13,10.33-10.11-25.41-13.08-53.56-8.76-80.61,5.28-33.13,23.19-63.58,49.41-84.49,9.2-7.34,18.89-13.4,29.21-18.32-.4,2.38-.76,4.78-1.07,7.19-.72,5.64,3.53,13.34,9.43,14.32,6.74,1.12,9.37-5.64,10.04-10.93.84-6.64,2.22-13.25,4.06-19.77,2.39-1.44,4.15-3.62,4.3-6.71.07-1.41-.27-2.7-.87-3.86,10.94-29.79,31.73-56.82,58.22-74.44,37.48-24.93,87.02-33.6,130.19-19.51,22.33,7.29,43.24,21.35,55.96,40.86,3.08,4.72,9.62,6.74,13.77,2.18,4.33-4.76,3.56-12.83.26-17.88-3.16-4.84-6.65-9.34-10.41-13.55,8.32-6.7,17.81-12,27.28-14.98,12.9-4.06,25.78-5.28,38.22-3.35,24.16,3.74,46.12,17.01,63.45,34.8-2.39,1.75-4.73,3.57-7.02,5.47-4.79,3.99-5.93,12.47-3.15,17.86,2.88,5.58,8.8,6.19,13.39,2.36,46.43-38.66,118.74-36.61,162.13,5.57,7.02,6.83,13.15,14.34,18.4,22.46-3.45.77-6.87,1.71-10.24,2.84-5.82,1.94-11.97,6.35-12.1,13.16-.12,5.84,6.03,9.71,11.49,7.89,7.35-2.45,34.29-10.75,65.45,3.05,19.4,8.6,34.7,24.43,43.69,43.54,17.86,37.93,14.61,84.33-3.67,121.07Z"/>
  </g>
</svg>