<?xml version="1.0" encoding="UTF-8"?>
<svg xmlns="http://www.w3.org/2000/svg" viewBox="0 0 1024 1024">
  <g style="isolation: isolate;">
    <g id="Emma_Shirt">
      <path d="M799.22,1024c-30.22-47.6-53.93-83.41-58.55-86.18-10.8-6.47-42.07-32.36-90.64-64.37l-17.67-23.44c-10.93-.74-22.61,4.37-22.61,4.37,0,0-18.32,91.26-83.61,91.26-76.7,0-84.74-96.64-84.74-96.64,0,0-10.06-10.8-13.82-10.67-8.22.22-21.51,19.72-21.51,19.72,0,0-97.95,54.13-105.95,61.57-2.81,2.62-28.54,52.59-56.11,104.37h555.2Z" style="fill: #ff404a;"/>
      <path d="M406.05,858.05c2.21,75.79,89.36,141.38,89.36,141.38,0,0-36.5,10.39-67.84-12.57-31.34-22.96-28.34-125.02-28.34-125.02l6.82-3.78Z" style="fill: #e03239;"/>
      <g>
        <path d="M551,940.74c26.5-2.57,80.63-64.11,81.36-90.71.05-1.96-22.59,4.37-22.59,4.37-13.94,65.06-58.77,86.34-58.77,86.34Z" style="fill: #ea8bc2; mix-blend-mode: multiply;"/>
        <path d="M427.57,838.33s24.66,95.7,67.84,100.95c0,0-42.97-12.02-54.01-90.28h0s-6.71-8.24-13.83-10.67Z" style="fill: #ea8bc2; mix-blend-mode: multiply;"/>
      </g>
      <path d="M561.17,1024c22.56-10.92,56.38-41.31,95.28-146.24l-6.41-4.31s-43.19,66.22-90.71,106.49c-23.99,20.33-44.58,34.76-59.08,44.06h60.92Z" style="fill: #e03239;"/>
    </g>
  </g>
</svg>