<?xml version="1.0" encoding="UTF-8"?>
<svg xmlns="http://www.w3.org/2000/svg" version="1.1" xmlns:xlink="http://www.w3.org/1999/xlink" viewBox="0 0 1024 1024">
  <!-- Generator: Adobe Illustrator 29.6.1, SVG Export Plug-In . SVG Version: 2.1.1 Build 9)  -->
  <defs>
    <linearGradient id="_76" data-name="  76" x1="-529.811" y1="397.751" x2="-529.811" y2="409.444" gradientUnits="userSpaceOnUse">
      <stop offset="0" stop-color="#ffc2c4"/>
      <stop offset="1" stop-color="#e5658e"/>
    </linearGradient>
    <linearGradient id="_300" data-name="  300" x1="-519.787" y1="406.298" x2="-523.681" y2="405.35" gradientUnits="userSpaceOnUse">
      <stop offset="0" stop-color="#b04c8e"/>
      <stop offset="1" stop-color="#ffbdac"/>
    </linearGradient>
    <linearGradient id="_3001" data-name="  300" x1="-535.565" y1="406.349" x2="-539.277" y2="405.445" xlink:href="#_300"/>
    <linearGradient id="_471" data-name="  471" x1="-422.286" y1="362.368" x2="-438.236" y2="376.809" gradientUnits="userSpaceOnUse">
      <stop offset=".016" stop-color="#db3440"/>
      <stop offset="1" stop-color="#922046"/>
    </linearGradient>
    <linearGradient id="_4711" data-name="  471" x1="-429.345" y1="461.118" x2="-429.345" y2="394.84" xlink:href="#_471"/>
    <linearGradient id="_4712" data-name="  471" x1="-344.39" y1="458.564" x2="-344.39" y2="357.36" xlink:href="#_471"/>
    <linearGradient id="_102" data-name="  102" x1="-387.239" y1="464.177" x2="-387.239" y2="317.92" gradientUnits="userSpaceOnUse">
      <stop offset=".01" stop-color="#f25259"/>
      <stop offset="1" stop-color="#a73646"/>
    </linearGradient>
    <linearGradient id="_302" data-name="  302" x1="-428.447" y1="454.511" x2="-436.329" y2="325.243" gradientUnits="userSpaceOnUse">
      <stop offset="0" stop-color="#a93656"/>
      <stop offset="1" stop-color="#fff"/>
    </linearGradient>
    <linearGradient id="_379" data-name="  379" x1="-210.178" y1="315.167" x2="-210.178" y2="284.421" gradientUnits="userSpaceOnUse">
      <stop offset="0" stop-color="#ff8959"/>
      <stop offset="1" stop-color="#ffa73b"/>
    </linearGradient>
    <linearGradient id="_269" data-name="  269" x1="-301.501" y1="351.585" x2="-138.45" y2="351.585" gradientUnits="userSpaceOnUse">
      <stop offset="0" stop-color="#ffb159"/>
      <stop offset="1" stop-color="#ffa73b"/>
    </linearGradient>
    <linearGradient id="_85" data-name="  85" x1="-705.459" y1="383.069" x2="-678.699" y2="383.069" gradientUnits="userSpaceOnUse">
      <stop offset="0" stop-color="#ffc4ba"/>
      <stop offset="1" stop-color="#ffd9d6"/>
    </linearGradient>
    <linearGradient id="_851" data-name="  85" x1="2238.018" x2="2264.778" gradientTransform="translate(1618.079) rotate(-180) scale(1 -1)" xlink:href="#_85"/>
    <linearGradient id="_852" data-name="  85" x1="-692.017" y1="351.265" x2="-692.017" y2="331.581" xlink:href="#_85"/>
    <linearGradient id="_853" data-name="  85" x1="-404.964" y1="351.265" x2="-404.964" y2="331.581" gradientTransform="translate(-1038.346) rotate(-180) scale(1 -1)" xlink:href="#_85"/>
    <linearGradient id="_854" data-name="  85" x1="-1253.549" y1="-205.15" x2="-1253.549" y2="-221.095" gradientTransform="translate(690.064 340.075) rotate(-15.803) scale(1.046 1.077)" xlink:href="#_85"/>
    <linearGradient id="_855" data-name="  85" x1="1500.544" y1="552.299" x2="1500.544" y2="536.353" gradientTransform="translate(978.891 340.075) rotate(-164.197) scale(1.046 -1.077)" xlink:href="#_85"/>
    <linearGradient id="_856" data-name="  85" x1="-704.847" y1="296.844" x2="-677.689" y2="296.844" xlink:href="#_85"/>
    <linearGradient id="_857" data-name="  85" x1="1993.794" y1="296.844" x2="2020.952" y2="296.844" gradientTransform="translate(1373.242) rotate(-180) scale(1 -1)" xlink:href="#_85"/>
    <linearGradient id="_406" data-name="  406" x1="-579.949" y1="262.568" x2="-550.184" y2="262.568" gradientUnits="userSpaceOnUse">
      <stop offset="0" stop-color="#a73646"/>
      <stop offset=".984" stop-color="#e05259"/>
    </linearGradient>
    <linearGradient id="_4061" data-name="  406" x1="-542.673" x2="-512.908" gradientTransform="translate(-1038.346) rotate(-180) scale(1 -1)" xlink:href="#_406"/>
    <linearGradient id="_4062" data-name="  406" x1="-365.204" y1="23.545" x2="-336.737" y2="23.545" gradientTransform="translate(-214.727 257.098) rotate(-1.077)" xlink:href="#_406"/>
    <linearGradient id="_4063" data-name="  406" x1="-149.52" y1="23.368" x2="-121.053" y2="23.368" gradientTransform="translate(-646.446 265.393) rotate(178.923) scale(1 -1)" xlink:href="#_406"/>
    <linearGradient id="_4064" data-name="  406" x1="-421.559" y1="286.993" x2="-391.642" y2="286.993" xlink:href="#_406"/>
    <linearGradient id="_4065" data-name="  406" x1="2118.874" y1="286.993" x2="2148.791" y2="286.993" gradientTransform="translate(1668.955) rotate(-180) scale(1 -1)" xlink:href="#_406"/>
    <linearGradient id="_4066" data-name="  406" x1="-315.642" y1="297.029" x2="-284.517" y2="297.029" gradientTransform="translate(-150.45 -17.401) rotate(2.688)" xlink:href="#_406"/>
    <linearGradient id="_4067" data-name="  406" x1="2446.737" y1="-99.31" x2="2478.105" y2="-99.31" gradientTransform="translate(2030.2 -104.878) rotate(169.193) scale(1 -1)" xlink:href="#_406"/>
    <linearGradient id="_3791" data-name="  379" x1="-661.99" y1="157.8" x2="-661.99" y2="87.733" xlink:href="#_379"/>
    <linearGradient id="_2691" data-name="  269" x1="-726.81" y1="142.079" x2="-619.355" y2="142.079" xlink:href="#_269"/>
    <linearGradient id="_4713" data-name="  471" x1="-677.355" y1="213.909" x2="-677.355" y2="120.328" xlink:href="#_471"/>
    <linearGradient id="_1021" data-name="  102" x1="-682.109" y1="216.916" x2="-682.109" y2="115.412" xlink:href="#_102"/>
    <linearGradient id="_50" data-name="  50" x1="-708.358" y1="146.118" x2="-708.358" y2="133.34" gradientUnits="userSpaceOnUse">
      <stop offset=".016" stop-color="#e05259"/>
      <stop offset="1" stop-color="#a73646"/>
    </linearGradient>
    <linearGradient id="_4068" data-name="  406" x1="-689.288" y1="139.494" x2="-668.099" y2="139.494" xlink:href="#_406"/>
    <linearGradient id="_858" data-name="  85" x1="-707.738" y1="162.123" x2="-707.738" y2="149.602" xlink:href="#_85"/>
    <linearGradient id="_761" data-name="  76" x1="1690.058" y1="480.379" x2="1707.053" y2="480.379" gradientTransform="translate(1062.78 107.323) rotate(-166.314) scale(1 -1)" xlink:href="#_76"/>
    <linearGradient id="_3002" data-name="  300" x1="1692.779" y1="482.308" x2="1696.782" y2="482.308" gradientTransform="translate(1062.78 107.323) rotate(-166.314) scale(1 -1)" xlink:href="#_300"/>
    <linearGradient id="_859" data-name="  85" x1="-677.661" y1="167.372" x2="-677.661" y2="156.53" xlink:href="#_85"/>
    <linearGradient id="_3792" data-name="  379" x1="-509.95" y1="103.887" x2="-509.95" y2="82.672" xlink:href="#_379"/>
    <linearGradient id="_2692" data-name="  269" x1="-572.961" y1="129.015" x2="-460.46" y2="129.015" xlink:href="#_269"/>
    <linearGradient id="_4714" data-name="  471" x1="-519.192" y1="204.728" x2="-519.192" y2="108.869" xlink:href="#_471"/>
    <linearGradient id="_762" data-name="  76" x1="-518.132" y1="162.149" x2="-518.132" y2="170.217" xlink:href="#_76"/>
    <linearGradient id="_3003" data-name="  300" x1="-511.216" y1="168.046" x2="-513.902" y2="167.392" xlink:href="#_300"/>
    <linearGradient id="_3004" data-name="  300" x1="-522.102" y1="168.082" x2="-524.664" y2="167.458" xlink:href="#_300"/>
    <linearGradient id="_4069" data-name="  406" x1="-547.603" y1="133.1" x2="-528.433" y2="133.1" xlink:href="#_406"/>
    <linearGradient id="_8510" data-name="  85" x1="-548.512" y1="151.62" x2="-529.5" y2="151.62" xlink:href="#_85"/>
    <linearGradient id="_40610" data-name="  406" x1="2106.741" y1="133.1" x2="2125.911" y2="133.1" gradientTransform="translate(1618.079) rotate(-180) scale(1 -1)" xlink:href="#_406"/>
    <linearGradient id="_8511" data-name="  85" x1="2105.832" y1="151.62" x2="2124.844" y2="151.62" gradientTransform="translate(1618.079) rotate(-180) scale(1 -1)" xlink:href="#_85"/>
    <linearGradient id="_1022" data-name="  102" x1="-519.179" y1="206.837" x2="-519.179" y2="105.923" xlink:href="#_102"/>
    <linearGradient id="_3021" data-name="  302" x1="-547.612" y1="200.168" x2="-553.051" y2="110.976" xlink:href="#_302"/>
    <linearGradient id="_3793" data-name="  379" x1="574.965" y1="203.608" x2="574.965" y2="77.481" xlink:href="#_379"/>
    <linearGradient id="_2693" data-name="  269" x1="200.342" y1="353.006" x2="869.207" y2="353.006" xlink:href="#_269"/>
    <linearGradient id="_763" data-name="  76" x1="526.32" y1="550.002" x2="526.32" y2="597.969" xlink:href="#_76"/>
    <linearGradient id="_3005" data-name="  300" x1="567.443" y1="585.065" x2="551.469" y2="581.175" xlink:href="#_300"/>
    <linearGradient id="_3006" data-name="  300" x1="502.716" y1="585.273" x2="487.488" y2="581.565" xlink:href="#_300"/>
    <linearGradient id="_1023" data-name="  102" x1="520.095" y1="815.69" x2="520.095" y2="215.715" xlink:href="#_102"/>
    <linearGradient id="_3022" data-name="  302" x1="351.05" y1="776.042" x2="318.715" y2="245.757" xlink:href="#_302"/>
    <linearGradient id="_8512" data-name="  85" x1="406.053" y1="516.669" x2="406.053" y2="435.924" xlink:href="#_85"/>
    <linearGradient id="_8513" data-name="  85" x1="-1684.933" y1="516.669" x2="-1684.933" y2="435.924" gradientTransform="translate(-1038.346) rotate(-180) scale(1 -1)" xlink:href="#_85"/>
    <linearGradient id="_40611" data-name="  406" x1="369.277" y1="375.597" x2="471.432" y2="375.597" xlink:href="#_406"/>
    <linearGradient id="_8514" data-name="  85" x1="364.432" y1="474.282" x2="465.744" y2="474.282" xlink:href="#_85"/>
    <linearGradient id="_40612" data-name="  406" x1="934.717" y1="375.597" x2="1036.872" y2="375.597" gradientTransform="translate(1618.079) rotate(-180) scale(1 -1)" xlink:href="#_406"/>
    <linearGradient id="_8515" data-name="  85" x1="929.872" y1="474.282" x2="1031.183" y2="474.282" gradientTransform="translate(1618.079) rotate(-180) scale(1 -1)" xlink:href="#_85"/>
    <linearGradient id="_3794" data-name="  379" x1="152.381" y1="526.608" x2="152.381" y2="116.786" gradientTransform="translate(546.369 -18.545) rotate(176.124) scale(1 -1)" xlink:href="#_379"/>
    <linearGradient id="_2694" data-name="  269" x1="-226.761" y1="434.662" x2="401.773" y2="434.662" gradientTransform="translate(546.369 -18.545) rotate(176.124) scale(1 -1)" xlink:href="#_269"/>
    <linearGradient id="_4715" data-name="  471" x1="62.527" y1="854.796" x2="62.527" y2="307.438" gradientTransform="translate(546.369 -18.545) rotate(176.124) scale(1 -1)" xlink:href="#_471"/>
    <linearGradient id="_1024" data-name="  102" x1="34.725" y1="872.382" x2="34.725" y2="278.69" gradientTransform="translate(546.369 -18.545) rotate(176.124) scale(1 -1)" xlink:href="#_102"/>
    <linearGradient id="_501" data-name="  50" x1="-122.35" y1="430.757" x2="-122.35" y2="383.554" gradientTransform="translate(546.369 -18.545) rotate(176.124) scale(1 -1)" xlink:href="#_50"/>
    <linearGradient id="_40613" data-name="  406" x1="-18" y1="390.456" x2="105.934" y2="390.456" gradientTransform="translate(546.369 -18.545) rotate(176.124) scale(1 -1)" xlink:href="#_406"/>
    <linearGradient id="_764" data-name="  76" x1="1381.867" y1="806.297" x2="1481.276" y2="806.297" gradientTransform="translate(-912.451 78.73) rotate(-12.199)" xlink:href="#_76"/>
    <linearGradient id="_3007" data-name="  300" x1="1397.786" y1="817.575" x2="1421.2" y2="817.575" gradientTransform="translate(-912.451 78.73) rotate(-12.199)" xlink:href="#_300"/>
    <linearGradient id="_8516" data-name="  85" x1="467.05" y1="474.005" x2="588.339" y2="474.005" xlink:href="#_85"/>
    <linearGradient id="_8517" data-name="  85" x1="684.331" y1="471.216" x2="722.366" y2="471.216" xlink:href="#_85"/>
    <linearGradient id="_3795" data-name="  379" x1="1554.516" y1="-45.637" x2="1554.516" y2="-175.235" gradientTransform="translate(-857.318 -48.904) rotate(11.63)" xlink:href="#_379"/>
    <linearGradient id="_2695" data-name="  269" x1="1169.584" y1="107.872" x2="1856.858" y2="107.872" gradientTransform="translate(-857.318 -48.904) rotate(11.63)" xlink:href="#_269"/>
    <linearGradient id="_4716" data-name="  471" x1="1498.062" y1="570.406" x2="1498.062" y2="-15.197" gradientTransform="translate(-857.318 -48.904) rotate(11.63)" xlink:href="#_471"/>
    <linearGradient id="_765" data-name="  76" x1="1504.534" y1="310.29" x2="1504.534" y2="359.576" gradientTransform="translate(-857.318 -48.904) rotate(11.63)" xlink:href="#_76"/>
    <linearGradient id="_3008" data-name="  300" x1="1546.789" y1="346.317" x2="1530.376" y2="342.32" gradientTransform="translate(-857.318 -48.904) rotate(11.63)" xlink:href="#_300"/>
    <linearGradient id="_3009" data-name="  300" x1="1480.281" y1="346.532" x2="1464.634" y2="342.721" gradientTransform="translate(-857.318 -48.904) rotate(11.63)" xlink:href="#_300"/>
    <linearGradient id="_40614" data-name="  406" x1="1333.657" y1="120.33" x2="1450.99" y2="120.33" gradientTransform="translate(-857.318 -48.904) rotate(11.63)" xlink:href="#_406"/>
    <linearGradient id="_8518" data-name="  85" x1="1324.765" y1="257.83" x2="1440.863" y2="257.83" gradientTransform="translate(-857.318 -48.904) rotate(11.63)" xlink:href="#_85"/>
    <linearGradient id="_40615" data-name="  406" x1="-2108.033" y1="120.424" x2="-1990.699" y2="120.424" gradientTransform="translate(-1281.055 -136.214) rotate(-168.37) scale(1 -1)" xlink:href="#_406"/>
    <linearGradient id="_8519" data-name="  85" x1="-2116.927" y1="257.924" x2="-2000.829" y2="257.924" gradientTransform="translate(-1281.055 -136.214) rotate(-168.37) scale(1 -1)" xlink:href="#_85"/>
    <linearGradient id="_1025" data-name="  102" x1="1498.139" y1="583.29" x2="1498.139" y2="-33.196" gradientTransform="translate(-857.318 -48.904) rotate(11.63)" xlink:href="#_102"/>
    <linearGradient id="_3023" data-name="  302" x1="1324.441" y1="542.551" x2="1291.217" y2="-2.326" gradientTransform="translate(-857.318 -48.904) rotate(11.63)" xlink:href="#_302"/>
  </defs>
  <g style="isolation: isolate;">
    <g id="Emma_x5F_Werkobjecten" style="display: none;">
      <g>
        <g>
          <g>
            <g>
              <path d="M-575.123,389.986s-4.112-6.119-9.07-6.117c-2.846.001-7.327,1.617-7.31,10.933.007,4.094,10.517,23.181,20.288,22.127l-3.908-26.943Z" style="fill: #ffa476;"/>
              <path d="M-484.499,389.986s4.112-6.119,9.069-6.117c2.846.001,7.327,1.617,7.31,10.933-.007,4.094-10.517,23.181-20.288,22.127l3.908-26.943Z" style="fill: #ffa476;"/>
            </g>
            <path d="M-503.963,473.426s-9.216,24.572-24.683,25.715c-20.43,1.511-28.08-26.518-28.08-26.518,0,0,11.363-2.675,14.027-7.216,1.322-2.249,1.332-10.094,1.013-17.438-.33-7.483-1.013-14.454-1.013-14.454h24.751s-.181,6.161-.309,13.079c-.149,8.655.095,18.32.309,19.027,1.321,4.358,13.985,7.806,13.985,7.806Z" style="fill: #ff7d63;"/>
            <path d="M-517.948,433.514s-.181,6.161-.309,13.079c-9.177,5.489-17.406,5.607-23.429,1.375-.33-7.483-1.013-14.454-1.013-14.454h24.751Z" style="fill: #ea8bc2; mix-blend-mode: multiply;"/>
            <path d="M-485.842,412.974c-2.771,6.363-8.954,12.482-16.127,17.385l-.011.011c-9.38,6.417-20.444,10.734-27.831,10.734-7.142,0-17.737-4.04-26.914-10.115-7.568-4.999-14.166-11.384-17.055-18.014-6.395-14.656-5.728-63.739,6.164-78.302,6.815-8.344,26.413-14.892,37.187-14.944,11.064-.054,31.383,6.409,38.423,14.944,11.963,14.504,12.56,63.645,6.164,78.302Z" style="fill: #ffa476;"/>
            <path d="M-481.858,386.959s-3.802,25.146-14.224,38.995c0,0,3.578-2.587,8.163-8.983,0,0,2.143.333,5.038-1.391,0,0-3.839,2.262-1.776-6.568,3.092-13.235,2.799-22.053,2.799-22.053Z" style="fill: #ea8bc2; mix-blend-mode: multiply; opacity: .5;"/>
            <path d="M-501.98,430.37c-9.38,6.417-20.444,10.734-27.831,10.734-7.142,0-17.737-4.04-26.914-10.115v-.011c7.365,4.306,20.05,7.579,26.914,8.378,6.758.789,27.213-8.708,27.831-8.986Z" style="fill: #f89867;"/>
            <g>
              <path d="M-518.707,398.424s.497,1.332.911,2.931c.414,1.599.497,2.458-1.243,2.861-1.412.327-4.088.016-5.283.463-1.195.447.74,1.593.186,2.241-1.492,1.747-4.207,2.695-5.676,2.695s-4.184-.948-5.676-2.695c-.554-.649,1.381-1.794.186-2.241-1.195-.447-3.826.245-5.49-.463-1.363-.58-1.45-1.262-1.036-2.861.414-1.599.911-2.931.911-2.931-3.315,3.997-1.875,5.542-1.479,5.753.396.211,5.57,3.907,7.611,4.814,1.169.52,3.725,1.018,4.972,1.018s3.803-.498,4.972-1.018c2.041-.907,7.215-4.603,7.611-4.814.396-.211,1.836-1.756-1.478-5.753Z" style="fill: url(#_76); mix-blend-mode: multiply; opacity: .5;"/>
              <path d="M-519.473,405.013c-2.609-.602-4.537.245-4.288.922.249.677.785,1.142,1.432.987,1.576-.376,2.857-1.91,2.857-1.91Z" style="fill: url(#_300); mix-blend-mode: multiply; opacity: .5;"/>
              <path d="M-539.174,405.889c-.989-1.138,3.79-.942,3.79-.343s-1.243,1.649-1.864,1.424c-.621-.225-1.117-.152-1.925-1.081Z" style="fill: url(#_3001); mix-blend-mode: multiply; opacity: .5;"/>
            </g>
            <image width="87" height="37" transform="translate(-573 381)" xlink:href="layer7-Emma-Met-Mond---Sip-1.png" style="mix-blend-mode: multiply;"/>
            <path d="M-577.763,386.298s3.625,26.023,14.024,39.279c0,0-4.051-3.126-7.866-8.609,0,0-2.424.095-5.318-1.63,0,0,3.704,2.154,1.759-6.703-2.961-13.481-2.599-22.337-2.599-22.337Z" style="fill: #ea8bc2; mix-blend-mode: multiply; opacity: .5;"/>
          </g>
          <g>
            <path d="M-441.989,385.785c-.817.157-2.044,1.042-2.044,1.042,0-4.156,1.114-11.075,1.925-15.525.661-3.627,9.741-18.764,13.882-23.245-1.442,10.229-3.437,27.827-3.773,42.793-2.344-1.397-5.841-5.862-9.99-5.065Z" style="fill: url(#_471);"/>
            <path d="M-397.424,457.53c-11.869.976-22.072,2.486-27.294,3.589,0,0-39.816-8.322-36.334-37.071.815-6.693,13.657-29.208,13.657-29.208-.333,6.534,10.31,23.893,19.896,23.786,3.414,5.17,8.829,10.035,14.862,14.022,4.662,3.084,9.693,5.645,14.449,7.417.204,2.625.433,6.036.592,9.564.116,2.664.184,5.396.171,7.902Z" style="fill: url(#_4711);"/>
            <path d="M-317.157,447.737c-5.771,6.117-32.415,10.828-32.415,10.828-7.278-1.416-15.858-1.982-24.63-2.011-.019-2.651-.013-5.529.036-8.303.055-2.907.116-5.677.171-7.915,5.286-1.891,10.95-4.782,16.104-8.309l.013-.01c5.658-3.867,10.698-8.49,13.935-13.395,3.677.637,12.793-5.412,12.682-10.508-.118-5.43-5.888-45.542-3.636-50.754.383.994,4.531,9.811,5.884,28.554l-2.308-.387c.443,9.689,2.625,18.045,4.026,19.06l1.31-2.439c12.441,26.298,13.571,40.567,8.828,45.588Z" style="fill: url(#_4712);"/>
            <g>
              <path d="M-317.162,452.024c-4.604,9.095-20.326,10.841-20.326,10.841l3.498-8.238s-9.893,6.492-18.952,5.658c0,0,18.409-9.004,13.314-54.691-1.6-14.303-5.972-38.425-5.972-38.425,0,0-13.76-17.481-20.071-29.027-.482-.87-.905-1.704-1.284-2.486-.01-.019-.016-.036-.026-.049-.006-.013-.013-.029-.019-.042l-.006-.003c-.142.006-4.604.191-11.358,1.439-13.592,2.496-33.33,9.922-48.742,28.16,0,0-3.553,6.123-3.595,7.164-.436,10.825-1.61,30.178-1.345,41.775.514,22.373,10.533,42.062,14.795,50.077,0,0-20.433-.588-25.761-5.606,0,0-5.331-9.564-6.395-14.093,0,0,1.064,7.462,3.731,12.525,0,0-18.836-7.375-8.881-36.401,4.222-12.312,11.335-21.025,12.57-31.248.097-.779-.236-17.294-.12-18.05,0,0,0-.01.01-.023,2.826-18.345,12.451-32.574,21.203-39.79,13.592-11.193,29.696-16.938,49.832-11.49.423.113.886.31,1.374.559l.003.003c3.249,1.681,7.501,5.907,7.501,5.907,0,0,2.399-.298,3.783-.275.424.003.75.039.886.12,11.516,6.883,18.183,17.336,22.619,31.047,2.121,6.596,2.709,11.245,3.113,16.191.714,8.59.905,18.086,7.847,40.236,5.231,16.725,7.556,36.702,6.777,38.235Z" style="fill: url(#_102);"/>
              <path d="M-443.014,458.565c-4.974-35.405,2.31-59.566,2.31-59.566,0,0-14.212,15.278-8.705,45.479l6.396,14.087Z" style="fill: #cc3b45;"/>
              <path d="M-362.186,326.47s-4.251-4.226-7.501-5.907c7.501,5.907,4.02,10.649.983,12.99-1.145.883-30.795-7.663-39.668-2.859-14.923,8.08-18.735,34.465-18.735,34.465,0,0,16.603-26.029,60.105-29.595h0s.006.013.019.042c.01.013.016.029.026.049.291.566,1.924,3.679,3.521,5.651-.055-.129-3.662-5.047-2.233-8.37,1.254-2.913,5.447-6.182,7.264-6.741-1.384-.023-3.783.275-3.783.275Z" style="fill: #a62f3c;"/>
              <path d="M-333.996,454.625c6.101-16.009,5.091-41.408,0-55.357-5.091-13.949-5.397-29.532-5.397-29.532,0,0,12.143,43.702,15.285,60.555,3.142,16.852-13.38,32.575-13.38,32.575l3.492-8.24Z" style="fill: #cc3b45;"/>
              <path d="M-365.668,338.142c16.455,12.002,31.265,20.83,31.265,20.83l.928,3.426s-9.61-6.328-17.87-10.389c-8.261-4.06-14.323-13.867-14.323-13.867Z" style="fill: #a62f3c;"/>
              <path d="M-354.243,355.637c9.052,13.817,22.982,23.374,22.982,23.374l-.475-4.853-22.507-18.521Z" style="fill: #a62f3c;"/>
              <path d="M-417.251,464.176s-10.307-5.841-19.698-23.45c-9.38-17.609.331-41.017,6.097-69.434l.149,1.034c-.629,10.766-1.609,30.176-1.343,41.773.512,22.374,10.531,42.061,14.795,50.077Z" style="fill: url(#_302); mix-blend-mode: multiply; opacity: .5;"/>
            </g>
          </g>
          <g>
            <g>
              <path d="M-287.294,410.009c24.497,27.046,65.351,38.046,82.585,38.236,26.96.297,52.136-16.26,52.136-16.26,0,0,12.7-25.8-3.303-62.532-16.003-36.733-38.741-62.42-87.747-63.882h-1.967s-41.906,26.942-44.957,52.99c-3.052,26.048-.205,47.776-.205,47.776l3.457,3.672Z" style="fill: #ff7a3f;"/>
              <path d="M-272.168,349.616c-8.735,61.643,58.528,83.199,79.868,77.405,21.341-5.794,28.963-26.745,27.984-39.78-.979-13.035-7.821-74.631-70.605-69.322-8.729.738-35.241,17.541-37.247,31.696Z" style="fill: #ea8bc2; mix-blend-mode: multiply;"/>
            </g>
            <g>
              <path d="M-187.661,315.167l-45.035-18.121s5.852-7.408,11.992-10.872c2.281-1.29,4.594-2.036,6.662-1.652,4.52.831,8.474,3.315,11.853,6.545l.021.011c9.561,9.114,14.507,24.09,14.507,24.09Z" style="fill: url(#_379);"/>
              <path d="M-187.661,315.167l-45.035-18.121s5.852-7.408,11.992-10.872l.181.565c5.681,8.709,18.334,4.328,18.334,4.328l.021.011c9.561,9.114,14.507,24.09,14.507,24.09Z" style="fill: #fa8a3f;"/>
              <path d="M-138.45,405.769l-1.778,8.529c-6.786-14.627-15.535-28.044-25.066-40.09-1.002-1.267-2.018-2.522-3.036-3.76-1.649-8.138-3.556-12.231-3.812-12.89-2.218-6.857-4.995-12.894-8.655-18.079-3.66-5.189-8.206-9.525-13.964-12.965-.136-.081-.462-.116-.886-.12-1.384-.023-3.783.275-3.783.275,0,0-4.252-4.226-7.501-5.907l-.003-.003c-.488-.249-.951-.446-1.374-.559-5.794-1.568-11.251-2.208-16.414-2.056-2.098-1.52-4.067-2.907-5.881-4.158-7.986-5.509-13.02-8.413-13.02-8.413-41.571,25.939-56.728,75.703-56.728,75.703l-.052-.514v-.003l-1.086-10.824s-.87-13.333,12.034-39.04c16.013-31.907,36.951-42.021,39.082-42.021s44.843-.462,74.972,26.295c35.884,31.872,36.951,90.601,36.951,90.601Z" style="fill: url(#_269);"/>
              <path d="M-279.821,386.179c.204-.09.407-.162.588-.197-.194.055-.391.123-.588.197Z" style="fill: #ff7a3f;"/>
              <path d="M-140.229,414.298c-1.956,6.043-6.224,12.231-12.344,17.688-1.387-7.362-4.743-17.142-10.656-29.638,1.248-2.509,1.972-4.617,1.975-5.69.013-7.022-2.531-9.667-5.005-10.546-.456-6.324-1.232-11.519-2.072-15.664-1.649-8.138-3.556-12.231-3.812-12.89-2.218-6.857-4.995-12.894-8.655-18.079-3.66-5.189-8.206-9.525-13.964-12.965-.136-.081-.462-.116-.886-.12-1.384-.023-3.783.275-3.783.275,0,0-4.252-4.226-7.501-5.907l-.003-.003c-.488-.249-.951-.446-1.374-.559-5.794-1.568-11.251-2.208-16.414-2.056-12.777.365-23.734,5.574-33.417,13.547-5.053,4.167-10.398,10.672-14.555,18.959t-.003.003c-3.033,6.046-5.438,13.039-6.634,20.763-.003.026-.013.058-.019.084v.01c-.808,4.439-1.917,11.329-1.924,15.486-1.746,1.326-3.214,3.928-3.353,8.846-.019-.284-.023-.55-.01-.802,0,0-2.952,5.173-6.114,11.3-5.548-7.669-9.095-16.233-9.651-25.577v-.003c-.032-.592-.058-1.19-.068-1.788-1.031-56.582,49.389-85.221,49.389-85.221,112.631,0,110.853,120.549,110.853,120.549Z" style="fill: #ff7a3f;"/>
              <path d="M-164.316,387.242l-1.942-1.131c-.456-6.324-1.232-11.519-2.072-15.664-1.649-8.138-3.556-12.231-3.812-12.89-2.218-6.857-4.995-12.894-8.655-18.079-3.66-5.189-8.206-9.525-13.964-12.965-.136-.081-.462-.116-.886-.12-1.384-.023-3.783.275-3.783.275,0,0-4.252-4.226-7.501-5.907l-.003-.003c-.488-.249-.951-.446-1.374-.559-5.794-1.568-11.251-2.208-16.414-2.056-12.777.365-23.734,5.574-33.417,13.547-5.053,4.167-10.398,10.672-14.555,18.959,7.517-17.792,21.183-31.39,29.072-35.48,1.3-.672,6.191-1.465,13.02-1.183,10.866.449,26.631,3.608,40.634,14.255,15.163,11.529,22.257,31.167,24.675,45.968,1.222,7.459.979,13.035.979,13.035Z" style="fill: #ea8bc2; mix-blend-mode: multiply;"/>
              <path d="M-167.755,373.531c-.246-.459-13.372-24.953-34.183-33.459-4.125-1.688-8.551-2.748-13.243-2.865-.149-.006-.297-.006-.449-.01-42.696-.517-55.693,11.584-56.537,12.418,4.077-7.795,9.185-13.935,14.028-17.928,13.592-11.193,29.696-16.938,49.832-11.49.423.113.886.31,1.374.559l.003.003c3.249,1.681,7.501,5.907,7.501,5.907,0,0,2.399-.298,3.783-.275.423.003.75.039.886.12,5.758,3.44,10.304,7.776,13.964,12.965,3.66,5.186,6.437,11.222,8.655,18.079.284.737,2.641,5.778,4.387,15.975Z" style="fill: #861e36;"/>
              <path d="M-281.276,386.994c.449-.34.915-.595,1.381-.782-.692.317-1.381.815-1.381.815v-.032Z" style="fill: #ffa476;"/>
            </g>
          </g>
          <g>
            <g>
              <path d="M-678.76,391.048c-.731-8.435-2.72-16.602-6.861-18.677-4.141-2.075-18.325-2.849-19.591,5.302-1.266,8.151,2.661,13.538,4.61,15,1.949,1.462,12.18,2.68,16.078,2.192,3.898-.487,4.476.718,5.278.109s.487-3.925.487-3.925Z" style="fill: url(#_85);"/>
              <path d="M-681.096,379.064s-.674-6.693-8.557-9.816c-6.554-2.596-17.203,1.587-17.203,1.587,0,0-.649,4.135,1.643,7.302,0,0,3.052-6.982,13.133-6.334,7.141.459,10.983,7.261,10.983,7.261Z" style="fill: #95344d;"/>
              <path d="M-646.638,391.048c.731-8.435,2.72-16.602,6.861-18.677,4.141-2.075,18.325-2.849,19.591,5.302,1.266,8.151-2.661,13.538-4.61,15-1.949,1.462-12.18,2.68-16.078,2.192-3.898-.487-4.476.718-5.278.109s-.487-3.925-.487-3.925Z" style="fill: url(#_851);"/>
              <path d="M-644.303,379.064s.674-6.693,8.557-9.816c6.554-2.596,17.203,1.587,17.203,1.587,0,0,.649,4.135-1.643,7.302,0,0-3.052-6.982-13.133-6.334-7.141.459-10.983,7.261-10.983,7.261Z" style="fill: #95344d;"/>
            </g>
            <g>
              <path d="M-678.337,350.715s-.352,1.236-1.951,0c-.469-.363-1.215-.661-2.217-.906-.927-.245-2.057-.426-3.379-.565h-.011c-2.11-.245-4.669-.373-7.547-.405-.33,0-.65-.021-.97-.043-1.396-.085-2.718-.331-3.912-.661-4.04-1.109-6.801-3.219-7.195-3.997-.533-1.066,0-4.082,3.379-8.314,3.368-4.221,12.961-5.724,17.94-2.516,4.978,3.198,5.863,15.275,5.863,17.407Z" style="fill: url(#_852);"/>
              <path d="M-706.659,332.784s-1.504,5.007,1.506,8.002c0,0,6.417-10.903,17.009-7.837,6.21,1.797,8.812,9.784,8.812,9.784,0,0-.47-6.112-4.867-9.429-9.364-7.064-22.46-.52-22.46-.52Z" style="fill: #95344d;"/>
              <path d="M-647.061,350.715s.352,1.236,1.951,0c.469-.363,1.215-.661,2.217-.906.927-.245,2.057-.426,3.379-.565h.011c2.11-.245,4.669-.373,7.547-.405.33,0,.65-.021.97-.043,1.396-.085,2.718-.331,3.912-.661,4.04-1.109,6.801-3.219,7.195-3.997.533-1.066,0-4.082-3.379-8.314-3.368-4.221-12.962-5.724-17.94-2.516-4.978,3.198-5.863,15.275-5.863,17.407Z" style="fill: url(#_853);"/>
              <path d="M-618.74,332.784s1.504,5.007-1.506,8.002c0,0-6.417-10.903-17.009-7.837-6.21,1.797-8.812,9.784-8.812,9.784,0,0,.47-6.112,4.867-9.429,9.364-7.064,22.46-.52,22.46-.52Z" style="fill: #95344d;"/>
            </g>
            <g>
              <path d="M-620.782,474.248c-.234,3.951-3.791,7.718-8.425,9.586-1.659.663-3.456,1.087-5.288,1.182-6.949.381-10.447-.641-12.231-.206-1.543.377-.5-5.961.997-8.817.731-1.405,7.587-7.023,9.406-7.744,2.312-.933,4.758-1.516,6.948-1.506,1.824.004,5.777-.172,6.984.684,2.836,1.957,1.609,6.821,1.609,6.821Z" style="fill: url(#_854);"/>
              <path d="M-645.955,476.375s3.693-6.668,10.308-9.644c2.486-1.118,14.263-2.354,14.795.697.423,2.425,5.062,3.718,5.062,3.718,0,0-3.018,3.102-5.374,1.631,0,0-1.647-6.45-11.71-3.814-8.832,2.314-13.08,7.412-13.08,7.412Z" style="fill: #95344d;"/>
              <path d="M-704.616,474.248c.234,3.951,3.791,7.718,8.425,9.586,1.659.663,3.456,1.087,5.288,1.182,6.949.381,10.447-.641,12.231-.206,1.543.377.5-5.961-.997-8.817-.731-1.405-7.587-7.023-9.406-7.744-2.312-.933-4.758-1.516-6.948-1.506-1.824.004-5.777-.172-6.984.684-2.836,1.957-1.609,6.821-1.609,6.821Z" style="fill: url(#_855);"/>
              <path d="M-679.443,476.375s-3.693-6.668-10.308-9.644c-2.486-1.118-14.263-2.354-14.795.697-.423,2.425-5.062,3.718-5.062,3.718,0,0,3.018,3.102,5.374,1.631,0,0,1.647-6.45,11.71-3.814,8.832,2.314,13.08,7.412,13.08,7.412Z" style="fill: #95344d;"/>
            </g>
            <g>
              <g>
                <path d="M-678.9,307.558c-1.339-.973-6.704,1.618-13.552,1.454h-.067c-6.81-.202-11.472-5.673-11.838-6.473-.664-1.474-.645-4.084.019-6.868,1.214-5.095,4.575-10.759,9.767-10.99,8.101-.366,13.831,6.357,15.286,11.009,1.454,4.643,2.533,13.417.385,11.867Z" style="fill: url(#_856);"/>
                <path d="M-680.476,292.827s-3.364-9.465-14.096-8.144c-6.834.841-14.532,3.741-14.532,3.741,0,0,1.993,4.206,4.765,7.249,0,0,3.471-8.651,12.537-8.35,8.249.274,11.325,5.505,11.325,5.505Z" style="fill: #95344d;"/>
              </g>
              <g>
                <path d="M-646.498,307.558c1.339-.973,6.704,1.618,13.552,1.454h.067c6.81-.202,11.472-5.673,11.838-6.473.664-1.474.645-4.084-.019-6.868-1.214-5.095-4.575-10.759-9.767-10.99-8.101-.366-13.831,6.357-15.286,11.009-1.454,4.643-2.533,13.417-.385,11.867Z" style="fill: url(#_857);"/>
                <path d="M-644.923,292.827s3.364-9.465,14.096-8.144c6.834.841,14.532,3.741,14.532,3.741,0,0-1.993,4.206-4.765,7.249,0,0-3.471-8.651-12.537-8.35-8.249.274-11.325,5.505-11.325,5.505Z" style="fill: #95344d;"/>
              </g>
            </g>
          </g>
          <g>
            <circle cx="-303.131" cy="284.892" r="9.269" style="fill: #908d66;"/>
            <circle cx="-303.131" cy="284.892" r="5.985" style="fill: #846a4e;"/>
            <circle cx="-358.272" cy="284.892" r="9.269" style="fill: #908d66;"/>
            <circle cx="-358.272" cy="284.892" r="5.985" style="fill: #846a4e;"/>
          </g>
          <g>
            <path d="M-293.862,254.071s-4.535.515-5.053,4.947c0,0,3.507-.618,5.053-4.947Z" style="fill: #fff;"/>
            <path d="M-368.281,254.071s4.535.515,5.053,4.947c0,0-3.507-.618-5.053-4.947Z" style="fill: #fff;"/>
          </g>
          <g>
            <g>
              <path d="M-579.949,269.285s8.827-4.426,26.059-5.322c0,0,2.906-3.307,3.706-7.964,0,0-19.05-2.525-29.765,13.286Z" style="fill: url(#_406);"/>
              <path d="M-495.673,269.285s-8.827-4.426-26.059-5.322c0,0-2.906-3.307-3.706-7.964,0,0,19.05-2.525,29.765,13.286Z" style="fill: url(#_4061);"/>
            </g>
            <g>
              <path d="M-579.26,295.74s15.075-4.8,22.184-6.217c0,0,5.904-6.285,5.967-10.791,0,0-14.528,2.302-28.152,17.008Z" style="fill: url(#_4062);"/>
              <path d="M-496.362,294.183s-15.245-4.23-22.402-5.379c0,0-6.136-6.059-6.369-10.559,0,0,14.605,1.755,28.771,15.938Z" style="fill: url(#_4063);"/>
            </g>
            <g>
              <path d="M-420.988,286.361s-1.481,5.77.331,9.159c0,0,12.027-7.605,17.8-10.11,4.385-1.903,11.215-4.762,11.215-4.762,0,0-8.151-2.458-11.215-2.155-9.296.918-18.131,7.869-18.131,7.869Z" style="fill: url(#_4064);"/>
              <path d="M-450.49,286.361s1.481,5.77-.331,9.159c0,0-12.027-7.605-17.8-10.11-4.385-1.903-11.215-4.762-11.215-4.762,0,0,8.151-2.458,11.215-2.155,9.296.918,18.131,7.869,18.131,7.869Z" style="fill: url(#_4065);"/>
            </g>
            <g>
              <path d="M-479.716,265.353s16.911.538,29.734,5.567c0,0,2.336-4.624,1.047-8.662,0,0-5.933-2.137-14.374-1.883-8.225.247-16.406,4.978-16.406,4.978Z" style="fill: url(#_4066);"/>
              <path d="M-391.081,260.364s-15.9-.709-28.66,6.252c0,0-3.19-3.109-3.438-7.586,0,0,2.609-1.306,14.286-4.371,9.127-2.396,17.812,5.705,17.812,5.705Z" style="fill: url(#_4067);"/>
            </g>
          </g>
          <g>
            <g>
              <path d="M-391.764,499.044c.64-.139,7.123-4.305,14.042-4.305s14.298,4.305,14.298,4.305c0,0-6.519,8.621-13.872,8.621s-14.467-8.621-14.467-8.621Z" style="fill: #95344d;"/>
              <path d="M-369.502,494.595c-3.105-2.086-6.349-3.059-8.092-3.059s-4.986.973-8.092,3.059c-3.105,2.086-6.729,4.449-6.729,4.449,0,0,2.717,0,6.599-1.668s8.221-1.53,8.221-1.53c0,0,4.339-.139,8.221,1.53,3.882,1.668,6.599,1.668,6.599,1.668,0,0-3.623-2.364-6.729-4.449Z" style="fill: #e0223b;"/>
              <path d="M-363.424,499.044s-.332.667-5.305,4.09c-4.974,3.424-8.823,3.496-8.823,3.496,0,0-3.932-.072-8.906-3.496-4.974-3.424-5.305-4.09-5.305-4.09,0,0,7.017,14.758,14.128,14.872v.005c.014,0,.027-.003.041-.003.014,0,.028.003.042.003v-.005c7.111-.114,14.128-14.872,14.128-14.872Z" style="fill: #ff524c;"/>
              <path d="M-385.815,497.376s4.331.742,16.443,0c0,0-4.361-2.086-8.221-2.086s-8.221,2.086-8.221,2.086Z" style="fill: #fff;"/>
              <path d="M-376.609,506.139c3.844-.441,10.341-4.012,8.747-4.937-3.718-2.158-11.488-1.709-15.609,1.932-.924.817,3.018,3.446,6.862,3.005Z" style="fill: #ffc7ac; mix-blend-mode: overlay; opacity: .3;"/>
            </g>
            <g>
              <path d="M-351.861,494.777s9.779,16.088,21.159,16.088,21.159-16.088,21.159-16.088c0,0-9.642,6.21-21.159,6.21s-21.159-6.21-21.159-6.21Z" style="fill: #95344d;"/>
              <path d="M-341.956,503.659c-1.123,1.274,7.877,5.241,10.797,5.33,2.92.089,10.134-3.287,10.797-4.619.662-1.332-20.576-1.865-21.593-.711Z" style="fill: #ffc7ac; mix-blend-mode: overlay; opacity: .3;"/>
              <path d="M-316.056,496.742c-6.549,1.99-14.645,1.355-14.645,1.355,0,0-8.096.634-14.645-1.355-6.55-1.99-7.598-2.783-7.598-2.783,0,0,10.044,8.278,22.244,8.278s22.243-8.278,22.243-8.278c0,0-1.049.794-7.598,2.783Z" style="fill: #e0223b;"/>
              <path d="M-330.701,509.61s-11.082-1.02-21.159-14.833c0,0,6.695,19.896,21.159,19.896s21.159-19.896,21.159-19.896c-10.077,13.813-21.159,14.833-21.159,14.833Z" style="fill: #ff524c;"/>
              <path d="M-315,498.098s-2.462,2.761-6.406,4.925c-2.558,1.428-5.745,2.59-9.295,2.59-3.709,0-7.024-1.279-9.647-2.782v-.011c-3.731-2.132-6.054-4.722-6.054-4.722,2.377,1.236,4.679,2.1,6.747,2.718h.011c5.191,1.524,8.943,1.418,8.943,1.418,0,0,3.347.096,8.09-1.183,2.281-.608,4.892-1.546,7.611-2.953Z" style="fill: #fff;"/>
              <path d="M-346.402,498.098c2.377,1.236,4.679,2.1,6.747,2.718h-.075s-.885.277-.618,2.004c-3.731-2.132-6.054-4.722-6.054-4.722Z" style="fill: #861e36;"/>
              <path d="M-315,498.098s-2.462,2.761-6.406,4.925c0,0,.074-1.087-1.204-1.972,2.281-.608,4.892-1.546,7.611-2.953Z" style="fill: #861e36;"/>
            </g>
            <g>
              <path d="M-281.845,496.516s-9.325.586-15.559,9.016c0,0,7.646-4.505,15.641-4.655,7.995-.15,15.804,4.064,15.804,4.064-6.546-8.19-15.886-8.425-15.886-8.425Z" style="fill: #e0223b;"/>
              <path d="M-281.584,507.877c6.158-.154,13.07-4.087,13.07-4.087-6.191-3.399-12.764-2.954-13.248-2.916-.486-.02-7.07-.218-13.13,3.411,0,0,7.054,3.671,13.214,3.593v.003c.016,0,.032-.002.047-.003.016,0,.031.001.047,0v-.003Z" style="fill: #ff524c;"/>
            </g>
            <g>
              <path d="M-424.383,509.907c10.912,0,21.197-14.288,21.197-14.288,0,0-19.049-6.44-42.394,0,0,0,8.859,14.288,21.197,14.288Z" style="fill: #95344d;"/>
              <path d="M-438.977,499.507c-1.383,2.581,7.446,9.789,13.624,9.986,6.178.196,15.05-5.458,12.357-8.038-2.693-2.58-24.75-4.245-25.981-1.947Z" style="fill: #ffc7ac; mix-blend-mode: overlay; opacity: .5;"/>
              <path d="M-443.136,495.178s1.368.441,2.267.755c0,0,19.396,1.433,33.816.049l1.844-.913c-.039-.002-20.58-4.921-37.927.108Z" style="fill: #fff;"/>
              <path d="M-413.378,506.255c-.792.329-5.743,2.897-11.109,2.897s-10.317-2.568-11.109-2.897c-.792-.329,7.94,5.429,11.109,5.429s11.901-5.758,11.109-5.429Z" style="fill: #fff;"/>
              <path d="M-401.304,494.869s-5.002-.45-7.412-1.042c-2.338-.574-8.531-2.652-15.667-2.652-6.28,0-13.35,1.976-15.665,2.535-2.687.649-7.414,1.159-7.414,1.159l1.882.75c19.769-3.659,25.065-2.618,42.394,0l1.882-.75Z" style="fill: #e0223b;"/>
              <path d="M-406.024,498.827c-6.615,7.134-12.064,11.079-18.359,11.079s-11.951-3.598-18.566-10.732c-.317-.342,7.497,15.108,18.567,15.108s18.675-15.797,18.358-15.456Z" style="fill: #ff524c;"/>
            </g>
            <g>
              <path d="M-244.98,511.12c5.757,1.767,18.522-3.308,18.75-8.791.144-3.454,5.173-6.094,5.173-6.094,0,0-13.318,2.841-19.486,5.32-6.871,2.762-16.406,3.675-16.406,3.675,0,0,8.999,4.978,11.968,5.89Z" style="fill: #ff524c;"/>
              <path d="M-256.949,505.231s5.924.077,12.798-1.978c6.873-2.056,8.408-3.182,14.871-3.071,3.731.064,8.223-3.946,8.223-3.946,0,0-1.688.797-7.529.587-5.627-.202-13.043.971-17.254,3.536-4.211,2.565-11.109,4.872-11.109,4.872Z" style="fill: #e0223b;"/>
            </g>
          </g>
        </g>
        <g>
          <path d="M-694.711,112.017s24.18-24.514,34.832-24.282,9.726,16.73,15.283,20.175c5.558,3.445,8.062,1.834,12.367,7.502,4.305,5.668,3.568,33.08,0,41.489-3.568,8.408-62.482-44.883-62.482-44.883Z" style="fill: url(#_3791);"/>
          <path d="M-726.81,95.652l4.328-.88s86.454-13.853,103.127,93.411l-3.01,1.787-104.444-94.318Z" style="fill: url(#_2691);"/>
          <path d="M-622.366,189.97s-34.735,2.924-69.122-22.852c-34.387-25.776-35.322-71.466-35.322-71.466,0,0,49.563.101,75.614,26.542,26.051,26.442,28.83,67.776,28.83,67.776Z" style="fill: #ff7a3f;"/>
          <path d="M-709.588,120.328s.501-5.501,1.833-7.469c1.332-1.967,27.268,1.622,39.656,8.569,12.389,6.947,19.839,11.912,23.686,31.419,2.935,14.884,5.37,23.841,5.37,23.841,0,0-61.09-34.882-70.545-56.36Z" style="fill: #ea8bc2; mix-blend-mode: multiply;"/>
          <path d="M-708.272,212.076s16.302-3.113,30.331-4.03c14.028-.917,32.105,5.863,32.105,5.863,0,0,10.618-3.967,13.05-9.524,2.431-5.558-3.54-18.404-9.205-36.819-5.665-18.414-9.552-27.093-9.552-27.093,0,0-15.631-20.146-33.345-20.146s-25.009,4.869-27.44,10.684c-2.431,5.815-1.606,18.221-3.869,25.18-2.263,6.958-8.027,19.451-5.77,28.309,2.258,8.857,13.695,27.576,13.695,27.576Z" style="fill: url(#_4713);"/>
          <path d="M-702.602,120.328c-7.939,5.194-9.378,13.894-9.378,20.146s1.737,14.241-1.563,21.188c-3.3,6.947-4.342,15.611,1.737,22.915,6.079,7.304,7.642,10.604,10.594,11.993,2.953,1.389,16.788.463,32.303-7.178,15.515-7.642,22.693-29.64,20.146-42.839-2.547-13.199-33.577-39.482-53.839-26.225Z" style="fill: #ffa476;"/>
          <path d="M-653.974,163.804s7.179-7.294,13.199-3.473c6.021,3.821,1.274,18.178-5.557,20.725-6.831,2.547-10.894-1.807-10.894-1.807,0,0,.59-11.161,3.252-15.445Z" style="fill: #ffa476;"/>
          <path d="M-664.512,186.689s-4.398,18.738-3.877,21.169,3.126,6.426,3.126,6.426c0,0-15.11,14.762-23.446,15.11-8.336.347-5.558-10.247-5.558-10.247,0,0,5.384-1.563,8.51-3.995,3.126-2.431,3.527-20.563,3.527-20.563,0,0,13.603-4.252,17.717-7.9Z" style="fill: #ff7d63;"/>
          <path d="M-645.631,172.827c-4.638-12.851.348-20.367-3.593-31.366-3.941-10.999-29.185-25.372-42.494-25.995-13.309-.642-18.295,4.565-21.999,11.293-3.703,6.71-9.605,9.014-9.495,15.742.128,6.709,3.812,8.768,4.637,14.396.807,5.628-8.451,20.22-8.231,35.051.238,14.812,14.354,21.65,14.354,21.65l-3.721-4.858c.202.183,1.925,1.723,7.901,3.336l3.006-2.42s-14.941-18.644-14.941-33.694,4.748-16.682,6.251-24.657c1.503-7.993.293-14.886,2.713-17.965,5.866-7.516,31.623-9.588,31.623-9.588,0,0,5.5,13.658,14.537,21.302,0,0,6.801,18.405,7.846,38.204,1.063,19.799-9.019,25.94-9.019,25.94,0,0,5.921,1.265,11.934-4.051,0,0-.348,4.51-5.793,8.909,0,0,14.171,1.833,18.497-1.943-.367.348-3.318,3.153-6.581,4.803.513-.092,4.711-1.082,9.166-5.756,4.748-4.986-1.98-25.482-6.6-38.333ZM-716.197,143.773c-.605,6.691-1.332,11.546-1.332,11.546.165-3.043-4.345-8.763-3.3-14.317,1.027-5.573,5.463-9.991,5.463-9.991,0,0-.226,6.089-.831,12.762Z" style="fill: url(#_1021);"/>
          <path d="M-711.242,133.34s5.774,6.787,6.642,12.778c0,0-3.282-3.338-7.381-5.644,0,0-.606-4.977.739-7.134Z" style="fill: url(#_50);"/>
          <path d="M-689.288,134.222s.174,3.647,2.779,6.339c0,0,5.297-.174,8.944.608,3.647.782,9.465,3.821,9.465,3.821,0,0-4.255-6.947-9.726-9.378-5.471-2.432-11.462-1.389-11.462-1.389Z" style="fill: url(#_4068);"/>
          <path d="M-711.411,157.057s-.168,3.024.476,3.761c.644.737,5.341,2.326,5.739,1.158,1.318-3.866-6.216-4.919-6.216-4.919Z" style="fill: #f89867;"/>
          <path d="M-704.09,159.31c-.029.213-.059.412-.096.596-.007.029-.007.051-.014.074-.044.206-.088.39-.132.537-.066.198-.132.382-.206.544-.015.051-.03.073-.03.073h-.007c-.338.721-.757,1.022-1,.986-2.096-.316-3.677-1.883-4.663-3.185q0-.007-.007-.015c-.757-1.008-1.162-1.861-1.162-1.861-.11-2.192.022-5.031.302-7.458.537.243,1.478.684,2.567,1.287.574.324,1.199.691,1.824,1.103.647.419,1.295.883,1.898,1.383.199.669.375,1.346.5,2.008.309,1.633.345,2.927.228,3.927Z" style="fill: url(#_858);"/>
          <path d="M-704.09,159.31c.044-.007-.044.368-.096.596-.007.029-.007.051-.014.074-.044.206-.088.39-.132.537-.081.279-.154.456-.206.544-.015.051-.03.073-.03.073h-.007c-1.898.213-4.192-.824-5.273-3.398q0-.007-.007-.015c-.287-.736-.441-1.544-.441-2.39,0-1.75.677-3.332,1.757-4.442.574.324,1.199.691,1.824,1.103.647.419,1.295.883,1.898,1.383.199.669.375,1.346.5,2.008.309,1.633.345,2.927.228,3.927Z" style="fill: #908d66;"/>
          <path d="M-704.09,159.31c-.177.029-.368.044-.559.044-2.044,0-3.707-1.802-3.707-4.023,0-1.39.647-2.618,1.64-3.339.647.419,1.295.883,1.898,1.383.199.669.375,1.346.5,2.008.309,1.633.345,2.927.228,3.927Z" style="fill: #eabfc2; mix-blend-mode: multiply;"/>
          <path d="M-704.819,153.377s-4.658-4.623-9.538-5.544l3.068,3.685.086-1.017s3.584.408,6.383,2.875Z" style="fill: #95344d;"/>
          <g>
            <path d="M-696.476,168.64s1.775,1.615,2.418,3.505c.643,1.891-1.298,3.389-3.349,2.101s-2.868-1.168-2.686-.298c.182.871-1.131,1.733-4.217,1.455-3.085-.279-5.983-3.27-4.886-6.156,0,0-2.068,5.093,4.946,6.88,7.014,1.787,8.37-1.193,10.864-2.044,2.493-.851-3.089-5.443-3.089-5.443Z" style="fill: url(#_761); mix-blend-mode: multiply; opacity: .5;"/>
            <path d="M-695.978,175.173s-2.251-1.547-3.328-1.441c-1.077.106-.408,1.477.668,2.002,1.076.525,2.659-.561,2.659-.561Z" style="fill: url(#_3002); mix-blend-mode: multiply; opacity: .5;"/>
          </g>
          <path d="M-682.898,204.69s7.557,1.527,16.099-7.58l2.288-10.42s-8.791,5.898-17.717,7.9l-.67,10.1Z" style="fill: #ea8bc2; mix-blend-mode: multiply;"/>
          <path d="M-699.852,196.936s11.455-6.928,21.599-9.764c10.144-2.837,17.655-3.919,17.655-3.919,0,0-3.841,5.422-16.757,9.89-12.917,4.469-22.497,3.793-22.497,3.793Z" style="fill: #f89867;"/>
          <path d="M-661.99,184.745s3.105-10.357,1.392-24.449c0,0,3.309,11.237,3.371,18.952,0,0-2.547,4.628-4.764,5.497Z" style="fill: #ea8bc2; mix-blend-mode: multiply;"/>
          <path d="M-649.889,97.781s2.515,11.847,6.162,17.631c3.647,5.784,10.247,4.742,10.247,3.179s-4.373-5.442-9.531-9.792c-5.158-4.35-6.878-11.018-6.878-11.018Z" style="fill: #f89867;"/>
          <path d="M-708.272,212.076s-12.033-9.427-14.21-19.327c-2.177-9.899,0-21.043,0-21.043,0,0-3.566,11.859-2.351,20.185,1.216,8.326,8.659,16.848,8.659,16.848,0,0,5.726,3.733,7.901,3.336Z" style="fill: #cc3b45;"/>
          <path d="M-654.32,205.146s4.695-9.116,4.431-18.225c-.264-9.109-7.017-25.61-9.719-36.203,0,0,8.091,20.812,11.986,34.026,3.895,13.214,3.426,25.088-12.491,29.311,0,0,3.762-4.035,5.793-8.909Z" style="fill: #cc3b45;"/>
          <path d="M-665.081,145.054s12.591,11.143,17.349,12.747l-.528,2.496s-8.593-2.384-16.821-15.243Z" style="fill: #c43f4b;"/>
          <path d="M-679.619,123.752s17.903,22.005,31.847,24.082l.182,5.544s-21.087-10.86-32.029-29.625Z" style="fill: #c43f4b;"/>
          <path d="M-711.242,133.34s-.234-9.828,7.676-13.012c7.91-3.184,23.947,3.424,23.947,3.424,0,0-22.012-1.498-31.623,9.588Z" style="fill: #a62f3c;"/>
          <path d="M-712.422,124.578s19.653-2.748,37.835,6.487c18.182,9.235,29,25.404,29,25.404l-1.961-5.574s5.573-10.42-17.533-26.225c-23.106-15.804-41.541-7.798-42.592-6.165-1.051,1.633-4.749,6.074-4.749,6.074Z" style="fill: #861e36;"/>
          <image width="54" height="31" transform="translate(-717 157)" xlink:href="layer7-Emma-Met-Mond---Sip-2.png" style="mix-blend-mode: multiply;"/>
          <path d="M-668.523,162.936c-.846,2.361-3.736,4.038-6.965,4.376-1.155.118-2.354.066-3.516-.191-4.413-.963-6.693-1.765-7.612-2.228-.919-.456,1.118-4.192,2.559-5.67.706-.728,1.868-1.353,3.236-1.817,1.118-.39,2.375-.662,3.64-.787,1.611-.169,3.243-.103,4.611.28,1.14.316,1.978.934,2.581,1.662,1.427,1.677,1.625,3.927,1.464,4.376Z" style="fill: url(#_859);"/>
          <path d="M-668.523,162.936c-.846,2.361-3.736,4.038-6.965,4.376-3.368-.559-5.943-3.486-5.943-7.016,0-1.03.22-2.008.61-2.89,1.118-.39,2.375-.662,3.64-.787,1.611-.169,3.243-.103,4.611.28,1.14.316,1.978.934,2.581,1.662,1.427,1.677,1.625,3.927,1.464,4.376Z" style="fill: #908d66;"/>
          <path d="M-669.649,160.296c0,2.574-2.089,4.663-4.67,4.663s-4.663-2.089-4.663-4.663c0-1.493.706-2.824,1.802-3.677,1.611-.169,3.243-.103,4.611.28,1.14.316,1.978.934,2.581,1.662.221.537.338,1.125.338,1.736Z" style="fill: #eabfc2; mix-blend-mode: multiply;"/>
          <path d="M-684.641,159.899s2.412-4.138,9.017-4.138c6.192,0,9.017,2.886,9.017,2.886,0,0-.678,1.452-1.895,3.328,0,0-1.107-3.558-7.744-4.56-5.863-.885-8.395,2.483-8.395,2.483Z" style="fill: #95344d;"/>
          <g>
            <path d="M-706.967,183.409c.445,2.721,3.877,6.908,5.348,6.561,1.471-.347,7.355-4.086,7.355-4.086l-12.703-2.476Z" style="fill: #ff524c;"/>
            <path d="M-694.264,185.885c.383.06-5.822-5.148-8.826-5.761-3.003-.613-3.922,1.194-4.29,1.731-.368.537-.892,0-.892,0,0,0,.034,1.701,3.221,2.069s8.826,1.655,10.787,1.961Z" style="fill: #e0223b;"/>
          </g>
          <path d="M-678.329,160.744c.169-.178-2.405-.995-3.899,1.378,0,0,3.041-.47,3.899-1.378Z" style="fill: #fff;"/>
          <path d="M-707.908,155.12s-.64.935-3.145,1.43c0,0,.688-1.389,3.145-1.43Z" style="fill: #fff;"/>
        </g>
        <g>
          <g>
            <path d="M-494.414,103.887l-31.073-12.503s4.038-5.111,8.274-7.502c1.574-.89,3.17-1.405,4.597-1.14,3.119.574,5.847,2.287,8.178,4.516l.015.007c6.597,6.288,10.01,16.622,10.01,16.622Z" style="fill: url(#_3792);"/>
            <path d="M-494.414,103.887l-31.073-12.503s4.038-5.111,8.274-7.502l.125.39c3.92,6.009,12.65,2.986,12.65,2.986l.015.007c6.597,6.288,10.01,16.622,10.01,16.622Z" style="fill: #fa8a3f;"/>
            <path d="M-572.953,141.675l.785,7.825s10.458-34.336,39.142-52.232c0,0,49.889,28.78,71.34,75.017l1.226-5.884s-.735-40.523-25.496-62.515c-20.787-18.462-50.257-18.142-51.728-18.142s-15.918,6.977-26.967,28.992c-8.903,17.738-8.302,26.938-8.302,26.938Z" style="fill: url(#_2692);"/>
            <path d="M-572.25,147.909c.482,26.495,35.808,44.163,59.818,47.797,26.266,3.975,46.472-10.232,50.747-23.421,0,0,1.226-83.177-76.488-83.177,0,0-34.787,19.762-34.077,58.802Z" style="fill: #ff7a3f;"/>
            <path d="M-533.026,103.887c-6.768,3.508-19.692,17.153-22.976,33.894-3.284,16.741,15.734,33.585,36.822,35.883s39.086-10.392,40.568-17.285c1.481-6.893-1.662-31.509-17.396-43.473-15.733-11.964-34.694-10.224-37.018-9.019Z" style="fill: #ea8bc2; mix-blend-mode: multiply;"/>
          </g>
          <path d="M-545.038,204.728c8.335-1.763,35.088-5.023,51.849-1.763,0,0,18.382-3.25,22.365-7.47,3.272-3.466,5.036-9.477-3.548-27.623-5.3-11.205-5.684-19.186-8.274-30.338-2.589-11.152-15.021-28.1-30.098-28.652-15.077-.552-37.93,16.874-40.093,26.418-4.826,21.299-16.356,36.306-17.27,43.849-2.403,19.835,25.07,25.579,25.07,25.579Z" style="fill: url(#_4714);"/>
          <path d="M-500.297,216.405s-4.744,15.084-13.974,17.688c-12.753,3.604-22.432-20.284-22.432-20.284,0,0,7.84-1.846,9.679-4.979.912-1.552.919-6.965.699-12.032-.228-5.163-.699-9.973-.699-9.973h17.077s-.125,4.251-.213,9.024c-.103,5.972-.147,12.768.213,13.128.64.647,9.649,7.428,9.649,7.428Z" style="fill: #ff7d63;"/>
          <path d="M-509.947,186.825s-.125,4.251-.213,9.024c-6.332,3.788-12.01,3.869-16.165.949-.228-5.163-.699-9.973-.699-9.973h17.077Z" style="fill: #ea8bc2; mix-blend-mode: multiply;"/>
          <g>
            <path d="M-486.936,156.791s5.393-3.427,7.355-3.323c1.961.104,3.604,3.843,3.947,6.647.343,2.804-7.257,15.994-13.998,15.267l2.697-18.59Z" style="fill: #ffa476;"/>
            <path d="M-549.167,156.791s-5.393-3.427-7.355-3.323c-1.961.104-3.604,3.843-3.947,6.647-.343,2.804,7.257,15.994,13.999,15.267l-2.697-18.59Z" style="fill: #ffa476;"/>
            <path d="M-487.794,172.653c-1.912,4.391-6.178,8.612-11.127,11.995l-.007.007c-6.472,4.427-14.106,7.406-19.203,7.406-4.928,0-12.238-2.787-18.571-6.979-5.222-3.449-9.774-7.855-11.767-12.429-4.413-10.113,1.486-51.1,2.022-51.85,8.061-11.26,27.889-10.311,27.889-10.311,0,0,20.681-.949,28.742,10.311.537.75,6.435,41.738,2.022,51.85Z" style="fill: #ffa476;"/>
            <path d="M-549.504,149.608s2.093,22.938,8.183,32.001c0,0-4.116-3.44-5.632-6.198,0,0-1.155.1-3.037-.778,0,0-.325-6.669,0-14.391.325-7.722.486-10.634.486-10.634Z" style="fill: #ea8bc2; mix-blend-mode: multiply;"/>
            <path d="M-487.607,156.991s-1.162,15.555-7.252,24.618c0,0,2.469-1.785,5.632-6.198,0,0,1.479.23,3.476-.96,0,0,.017-2.534-.416-6.463-.846-7.683-1.44-10.997-1.44-10.997Z" style="fill: #ea8bc2; mix-blend-mode: multiply;"/>
            <path d="M-498.929,184.655c-6.472,4.427-14.106,7.406-19.203,7.406-4.928,0-12.238-2.787-18.571-6.979v-.007c5.082,2.971,13.834,5.229,18.571,5.781,4.663.544,18.777-6.009,19.203-6.2Z" style="fill: #f89867;"/>
            <g>
              <path d="M-510.471,162.613s.343.919.629,2.022c.286,1.103.343,1.696-.858,1.974-.974.226-2.82.011-3.645.319s.511,1.099.129,1.547c-1.029,1.206-2.903,1.86-3.917,1.86s-2.887-.654-3.916-1.86c-.382-.448.953-1.238.129-1.547-.824-.308-2.64.169-3.788-.319-.941-.4-1.001-.871-.715-1.974.286-1.103.629-2.022.629-2.022-2.287,2.758-1.294,3.824-1.02,3.97.273.146,3.843,2.696,5.251,3.322.806.359,2.57.702,3.431.702s2.624-.344,3.43-.702c1.408-.626,4.978-3.176,5.251-3.322.273-.146,1.267-1.212-1.02-3.97Z" style="fill: url(#_762); mix-blend-mode: multiply; opacity: .5;"/>
              <path d="M-511,167.159c-1.8-.415-3.13.169-2.959.636.172.467.542.788.988.681,1.087-.259,1.971-1.318,1.971-1.318Z" style="fill: url(#_3003); mix-blend-mode: multiply; opacity: .5;"/>
              <path d="M-524.592,167.764c-.682-.785,2.615-.65,2.615-.237s-.858,1.138-1.286.982c-.429-.155-.771-.105-1.328-.746Z" style="fill: url(#_3004); mix-blend-mode: multiply; opacity: .5;"/>
            </g>
            <g>
              <g>
                <path d="M-547.603,137.561s7.42-2.683,16.411-2.798c0,0,2.298-2.769,2.76-6.115,0,0-8.372-.292-13.615,2.769-5.243,3.062-5.555,6.145-5.555,6.145Z" style="fill: url(#_4069);"/>
                <path d="M-529.543,157.289c-.519-5.993-1.933-11.796-4.875-13.27-2.942-1.474-13.02-2.024-13.919,3.767-.899,5.791,1.89,9.618,3.275,10.657,1.385,1.038,8.654,1.904,11.423,1.558,2.769-.346,3.18.51,3.75.078s.346-2.789.346-2.789Z" style="fill: url(#_8510);"/>
                <path d="M-531.203,148.775s-.479-4.755-6.08-6.974c-4.657-1.844-12.222,1.128-12.222,1.128,0,0-.461,2.938,1.167,5.188,0,0,2.168-4.961,9.331-4.5,5.073.326,7.803,5.158,7.803,5.158Z" style="fill: #95344d;"/>
                <path d="M-531.979,152.828c0,3.069-2.488,5.557-5.557,5.557s-5.557-2.488-5.557-5.557,2.488-5.557,5.557-5.557,5.557,2.488,5.557,5.557Z" style="fill: #908d66;"/>
                <path d="M-533.948,152.828c0,1.982-1.606,3.588-3.588,3.588s-3.588-1.606-3.588-3.588,1.606-3.588,3.588-3.588,3.588,1.606,3.588,3.588Z" style="fill: #846a4e;"/>
                <path d="M-542.661,148.375s2.719.309,3.029,2.966c0,0-2.102-.371-3.029-2.966Z" style="fill: #fff;"/>
              </g>
              <g>
                <path d="M-488.662,137.561s-7.42-2.683-16.411-2.798c0,0-2.298-2.769-2.76-6.115,0,0,8.372-.292,13.615,2.769,5.243,3.062,5.555,6.145,5.555,6.145Z" style="fill: url(#_40610);"/>
                <path d="M-506.721,157.289c.519-5.993,1.933-11.796,4.875-13.27,2.942-1.474,13.02-2.024,13.919,3.767.899,5.791-1.89,9.618-3.275,10.657-1.385,1.038-8.654,1.904-11.423,1.558-2.769-.346-3.18.51-3.75.078-.569-.433-.346-2.789-.346-2.789Z" style="fill: url(#_8511);"/>
                <path d="M-505.062,148.775s.479-4.755,6.08-6.974c4.657-1.844,12.222,1.128,12.222,1.128,0,0,.461,2.938-1.167,5.188,0,0-2.168-4.961-9.331-4.5-5.073.326-7.803,5.158-7.803,5.158Z" style="fill: #95344d;"/>
                <path d="M-504.285,152.828c0,3.069,2.488,5.557,5.557,5.557s5.557-2.488,5.557-5.557-2.488-5.557-5.557-5.557-5.557,2.488-5.557,5.557Z" style="fill: #908d66;"/>
                <path d="M-502.317,152.828c0,1.982,1.606,3.588,3.588,3.588s3.588-1.606,3.588-3.588-1.606-3.588-3.588-3.588-3.588,1.606-3.588,3.588Z" style="fill: #846a4e;"/>
                <path d="M-493.604,148.375s-2.719.309-3.029,2.966c0,0,2.102-.371,3.029-2.966Z" style="fill: #fff;"/>
              </g>
            </g>
            <image width="61" height="27" transform="translate(-549 150)" xlink:href="layer7-Emma-Met-Mond---Sip-3.png" style="mix-blend-mode: multiply;"/>
            <g>
              <path d="M-528.2,178.171c.454-.099,5.061-3.058,9.976-3.058s10.158,3.058,10.158,3.058c0,0-4.632,6.125-9.856,6.125s-10.279-6.125-10.279-6.125Z" style="fill: #95344d;"/>
              <path d="M-512.383,175.01c-2.206-1.482-4.511-2.173-5.749-2.173s-3.543.692-5.749,2.173-4.78,3.161-4.78,3.161c0,0,1.931,0,4.689-1.185s5.841-1.087,5.841-1.087c0,0,3.083-.099,5.841,1.087s4.689,1.185,4.689,1.185c0,0-2.574-1.679-4.78-3.161Z" style="fill: #e0223b;"/>
              <path d="M-508.065,178.171s-.236.474-3.769,2.906c-3.534,2.432-6.269,2.484-6.269,2.484,0,0-2.793-.051-6.327-2.484-3.534-2.432-3.769-2.906-3.769-2.906,0,0,4.986,10.485,10.038,10.566v.004c.01,0,.019-.002.029-.002.01,0,.02.002.029.002v-.004c5.052-.081,10.038-10.566,10.038-10.566Z" style="fill: #ff524c;"/>
              <path d="M-523.973,176.985s3.077.527,11.682,0c0,0-3.098-1.482-5.841-1.482s-5.841,1.482-5.841,1.482Z" style="fill: #fff;"/>
              <path d="M-517.433,183.212c2.731-.314,7.347-2.85,6.214-3.508-2.642-1.533-8.162-1.214-11.09,1.373-.657.58,2.145,2.448,4.876,2.135Z" style="fill: #ffc7ac; mix-blend-mode: overlay; opacity: .3;"/>
            </g>
          </g>
          <g>
            <path d="M-470.827,198.453c-3.177,6.273-14.025,7.48-14.025,7.48l2.412-5.685s-6.825,4.479-13.077,3.905c0,0,12.701-6.215,9.186-37.737-1.103-9.87-4.119-26.514-4.119-26.514,0,0-9.495-12.062-13.849-20.027-.346-.625-.647-1.221-.919-1.78,0,0-3.104.118-7.84.993-9.377,1.721-25.145,6.413-35.78,18.997,0,0-.14,2.111-.331,5.376-.434,7.428-1.11,20.821-.927,28.823.353,15.437,7.266,29.021,10.208,34.552,0,0-14.099-.404-17.776-3.869,0,0-3.677-6.597-4.413-9.723,0,0,.735,5.148,2.574,8.642,0,0-12.996-5.089-6.126-25.116,2.912-8.495,7.517-25.366,8.37-32.419.066-.537.14-1.074.221-1.596,0,0,0-.007.007-.015,1.949-12.657,8.59-22.476,14.628-27.455,9.377-7.722,20.49-11.687,34.383-7.928,11.525,3.118,20.961,13.437,24.954,25.778,1.463,4.552,1.868,7.759,2.147,11.172.493,5.928.625,12.481,5.413,27.764,3.611,11.539,5.214,25.322,4.677,26.381Z" style="fill: url(#_1022);"/>
            <path d="M-557.664,202.965c-3.432-24.429,1.593-41.099,1.593-41.099,0,0-9.806,10.542-6.006,31.38l4.413,9.719Z" style="fill: #cc3b45;"/>
            <path d="M-505.215,118.097s-18.249-8.935-28.546-3.36c-10.296,5.575-15.077,23.349-15.077,23.349,0,0,13.606-17.529,43.623-19.989Z" style="fill: #a62f3c;"/>
            <path d="M-482.443,200.247c4.21-11.046,3.513-28.571,0-38.195-3.513-9.624-3.724-20.376-3.724-20.376,0,0,8.378,30.154,10.546,41.782,2.168,11.628-9.232,22.476-9.232,22.476l2.41-5.686Z" style="fill: #cc3b45;"/>
            <path d="M-504.296,119.876c11.353,8.281,21.572,14.372,21.572,14.372l.64,2.364s-6.63-4.367-12.33-7.168c-5.7-2.802-9.882-9.568-9.882-9.568Z" style="fill: #c43f4b;"/>
            <path d="M-490.453,139.906c4.66,6.892,9.696,8.003,9.696,8.003l-.492-3.75-9.204-4.253Z" style="fill: #c43f4b;"/>
            <path d="M-481.249,144.161s-11.927-24.831-31.809-25.072c-30.509-.37-39.04,8.598-39.04,8.598,2.816-5.393,6.348-9.64,9.695-12.4,9.377-7.722,20.49-11.687,34.383-7.928,11.525,3.118,20.961,13.437,24.954,25.778,1.463,4.552,1.816,11.025,1.816,11.025Z" style="fill: #861e36;"/>
            <path d="M-539.888,206.837s-7.112-4.03-13.591-16.18c-6.472-12.15.228-28.301,4.207-47.908l.103.713c-.434,7.428-1.11,20.821-.927,28.823.353,15.437,7.266,29.021,10.208,34.552Z" style="fill: url(#_3021); mix-blend-mode: multiply; opacity: .5;"/>
          </g>
        </g>
      </g>
      <image width="705" height="612" transform="translate(1145.397 213.335)" xlink:href="layer7-Emma-Met-Mond---Sip-4.png"/>
    </g>
    <g id="Emma_x5F_Hoofd_x5F_Zonder_mond" style="display: none;">
      <g>
        <g>
          <path d="M667.337,203.608l-184.744-74.335s24.006-30.39,49.193-44.601c9.358-5.291,18.846-8.352,27.329-6.778,18.541,3.411,34.764,13.599,48.625,26.848l.087.044c39.222,37.386,59.511,98.821,59.511,98.821Z" style="fill: url(#_3793);"/>
          <path d="M667.337,203.608l-184.744-74.335s24.006-30.39,49.193-44.601l.743,2.317c23.307,35.724,75.211,17.753,75.211,17.753l.087.044c39.222,37.386,59.511,98.821,59.511,98.821Z" style="fill: #fa8a3f;"/>
          <path d="M200.392,428.276l4.669,46.52s62.18-204.14,232.713-310.54c0,0,296.61,171.106,424.146,446.008l7.287-34.981s-4.372-240.927-151.584-371.674c-123.588-109.765-298.797-107.858-307.542-107.858s-94.639,41.479-160.331,172.367c-52.929,105.461-49.358,160.159-49.358,160.159Z" style="fill: url(#_2693);"/>
          <path d="M204.567,465.339c2.867,157.522,212.89,262.569,355.641,284.173,156.16,23.633,276.298-60.837,301.712-139.248,0,0,7.287-494.523-454.754-494.523,0,0-206.824,117.493-202.599,349.599Z" style="fill: #ff7a3f;"/>
          <path d="M437.774,203.608c-40.237,20.859-117.077,101.982-136.601,201.513-19.524,99.53,93.546,199.677,218.924,213.342,125.378,13.664,232.381-61.786,241.189-102.768,8.809-40.982-9.882-187.332-103.423-258.463-93.54-71.13-206.269-60.787-220.089-53.623Z" style="fill: #ea8bc2; mix-blend-mode: multiply;"/>
        </g>
        <path d="M366.354,803.151c49.557-10.482,208.612-29.864,308.26-10.482,0,0,109.289-19.322,132.972-44.413,19.452-20.609,29.938-56.346-21.095-164.229-31.514-66.619-33.796-114.069-49.192-180.371-15.396-66.302-89.308-167.068-178.947-170.348-89.639-3.28-225.512,100.32-238.369,157.066-28.693,126.634-97.246,215.857-102.68,260.7-14.289,117.93,149.05,152.077,149.05,152.077Z" style="fill: #c82f42;"/>
        <path d="M632.356,872.578s-28.204,89.683-83.079,105.162c-75.823,21.426-133.366-120.597-133.366-120.597,0,0,46.612-10.976,57.543-29.603,5.422-9.226,5.466-41.409,4.154-71.536-1.354-30.696-4.154-59.293-4.154-59.293h101.533s-.743,25.273-1.268,53.652c-.611,35.506-.873,75.909,1.268,78.052,3.804,3.848,57.369,44.163,57.369,44.163Z" style="fill: #ff7d63;"/>
        <path d="M574.987,696.711s-.743,25.273-1.268,53.652c-37.648,22.519-71.404,23-96.111,5.641-1.354-30.696-4.154-59.293-4.154-59.293h101.533Z" style="fill: #ea8bc2; mix-blend-mode: multiply;"/>
        <g>
          <path d="M711.792,518.147s32.066-20.377,43.726-19.759c11.661.618,21.429,22.847,23.468,39.518,2.039,16.672-43.145,95.092-83.227,90.769l16.033-110.528Z" style="fill: #ffa476;"/>
          <path d="M341.805,518.147s-32.066-20.377-43.727-19.759c-11.66.618-21.428,22.847-23.467,39.518-2.039,16.672,43.145,95.092,83.227,90.769l-16.033-110.528Z" style="fill: #ffa476;"/>
          <path d="M706.691,612.45c-11.369,26.104-36.73,51.204-66.158,71.318l-.045.044c-38.479,26.323-83.866,44.032-114.169,44.032-29.297,0-72.762-16.572-110.409-41.496-31.046-20.508-58.112-46.7-69.962-73.897-26.236-60.124,8.833-303.811,12.025-308.271,47.924-66.945,165.811-61.304,165.811-61.304,0,0,122.959-5.641,170.883,61.304,3.192,4.46,38.26,248.147,12.025,308.271Z" style="fill: #ffa476;"/>
          <path d="M339.802,475.44s12.443,136.373,48.648,190.257c0,0-24.472-20.452-33.487-36.849,0,0-6.869.593-18.053-4.622,0,0-1.933-39.65,0-85.563,1.933-45.912,2.892-63.222,2.892-63.222Z" style="fill: #ea8bc2; mix-blend-mode: multiply;"/>
          <path d="M707.803,519.335s-6.912,92.478-43.117,146.361c0,0,14.676-10.613,33.487-36.849,0,0,8.792,1.367,20.666-5.706,0,0,.102-15.063-2.472-38.426-5.032-45.678-8.564-65.379-8.564-65.379Z" style="fill: #ea8bc2; mix-blend-mode: multiply;"/>
          <path d="M640.489,683.811c-38.479,26.323-83.866,44.032-114.169,44.032-29.297,0-72.762-16.572-110.409-41.496v-.044c30.215,17.666,82.25,31.09,110.409,34.369,27.721,3.235,111.635-35.724,114.169-36.861Z" style="fill: #f89867;"/>
          <g>
            <path d="M571.873,552.762s2.04,5.466,3.739,12.025c1.699,6.559,2.039,10.084-5.099,11.738-5.791,1.341-16.77.066-21.671,1.899-4.902,1.833,3.037,6.534.765,9.195-6.119,7.168-17.26,11.056-23.286,11.056s-17.166-3.888-23.285-11.056c-2.273-2.661,5.666-7.362.765-9.195-4.902-1.833-15.694,1.004-22.521-1.899-5.593-2.378-5.95-5.179-4.249-11.738,1.699-6.559,3.739-12.025,3.739-12.025-13.598,16.398-7.693,22.736-6.067,23.602,1.625.867,22.85,16.027,31.222,19.749,4.795,2.132,15.28,4.175,20.397,4.175s15.601-2.043,20.396-4.175c8.371-3.722,29.596-18.883,31.222-19.749,1.625-.866,7.531-7.204-6.065-23.602Z" style="fill: url(#_763); mix-blend-mode: multiply; opacity: .5;"/>
            <path d="M568.727,579.791c-10.702-2.469-18.611,1.006-17.592,3.783,1.02,2.776,3.22,4.684,5.873,4.051,6.466-1.542,11.719-7.834,11.719-7.834Z" style="fill: url(#_3005); mix-blend-mode: multiply; opacity: .5;"/>
            <path d="M487.913,583.383c-4.057-4.667,15.547-3.866,15.547-1.406s-5.099,6.763-7.648,5.841c-2.55-.922-4.584-.622-7.898-4.435Z" style="fill: url(#_3006); mix-blend-mode: multiply; opacity: .5;"/>
          </g>
          <image width="353" height="150" transform="translate(350 483)" xlink:href="layer7-Emma-Met-Mond---Sip-5.png" style="mix-blend-mode: multiply;"/>
        </g>
        <g>
          <path d="M807.567,765.842c-18.889,37.299-83.385,44.47-83.385,44.47l14.343-33.801s-40.579,26.629-77.746,23.219c0,0,75.516-36.949,54.616-224.36-6.559-58.681-24.488-157.634-24.488-157.634,0,0-56.451-71.711-82.337-119.067-2.056-3.717-3.847-7.259-5.466-10.582,0,0-18.454.7-46.613,5.903-55.751,10.232-149.5,38.129-212.728,112.945,0,0-.83,12.55-1.968,31.964-2.58,44.163-6.603,123.789-5.509,171.363,2.098,91.782,43.201,172.545,60.692,205.427,0,0-83.823-2.405-105.687-23,0,0-21.863-39.223-26.236-57.806,0,0,4.373,30.608,15.304,51.379,0,0-77.264-30.259-36.424-149.326,17.315-50.503,44.689-150.812,49.761-192.746.394-3.192.831-6.384,1.312-9.488,0,0,0-.044.043-.088,11.588-75.253,51.073-133.628,86.973-163.231,55.751-45.913,121.821-69.481,204.421-47.137,68.519,18.54,124.62,79.888,148.365,153.261,8.7,27.066,11.104,46.131,12.767,66.42,2.929,35.243,3.717,74.204,32.182,165.067,21.471,68.607,31.002,150.55,27.81,156.846Z" style="fill: url(#_1023);"/>
          <path d="M291.29,792.67c-20.405-145.238,9.474-244.352,9.474-244.352,0,0-58.302,62.674-35.71,186.565l26.236,57.786Z" style="fill: #cc3b45;"/>
          <path d="M738.508,776.508c25.027-65.673,20.885-169.866,0-227.085-20.886-57.22-22.141-121.147-22.141-121.147,0,0,49.812,179.277,62.701,248.408,12.889,69.131-54.887,133.628-54.887,133.628l14.327-33.804Z" style="fill: #cc3b45;"/>
          <path d="M608.583,298.673c67.5,49.232,128.256,85.448,128.256,85.448l3.807,14.053s-39.421-25.96-73.309-42.617c-33.887-16.657-58.754-56.885-58.754-56.885Z" style="fill: #c43f4b;"/>
          <path d="M690.885,417.757c27.706,40.974,57.647,47.582,57.647,47.582l-2.926-22.296-54.721-25.287Z" style="fill: #c43f4b;"/>
          <path d="M745.607,443.054s-70.909-147.629-189.117-149.063c-181.391-2.201-232.11,51.119-232.11,51.119,16.741-32.065,37.743-57.316,57.643-73.725,55.751-45.913,121.821-69.481,204.421-47.137,68.519,18.54,124.62,79.888,148.365,153.261,8.7,27.066,10.799,65.546,10.799,65.546Z" style="fill: #861e36;"/>
          <path d="M396.977,815.69s-42.283-23.962-80.807-96.198c-38.479-72.236,1.356-168.26,25.011-284.834l.613,4.241c-2.58,44.163-6.603,123.789-5.509,171.363,2.098,91.782,43.201,172.545,60.692,205.427Z" style="fill: url(#_3022); mix-blend-mode: multiply; opacity: .5;"/>
          <path d="M603.118,288.095s-108.5-53.124-169.716-19.978c-61.217,33.147-89.639,138.819-89.639,138.819,0,0,80.894-104.214,259.355-118.841Z" style="fill: #a62f3c;"/>
        </g>
      </g>
    </g>
    <g id="Emma_x5F_Ogen_x5F_01_-_Normaal" style="display: none;">
      <g>
        <g>
          <path d="M353.461,406.936s36.21-18.158,106.901-21.832c0,0,14.575-13.565,17.855-32.67,0,0-80.801-10.358-124.756,54.502Z" style="fill: #ca4752;"/>
          <path d="M462.17,514.415s-1.444,5.072-8.002,0c-1.924-1.487-4.985-2.711-9.095-3.716-3.804-1.006-8.439-1.749-13.861-2.317h-.044c-8.658-1.006-19.152-1.53-30.959-1.662-1.354,0-2.666-.088-3.979-.174-5.729-.35-11.15-1.356-16.047-2.712-16.573-4.547-27.898-13.205-29.515-16.397-2.186-4.373,0-16.747,13.861-34.106,13.817-17.316,53.171-23.481,73.592-10.32,20.419,13.118,24.049,62.66,24.049,71.405Z" style="fill: url(#_8512);"/>
          <path d="M345.988,440.86s-6.171,20.537,6.179,32.826c0,0,26.325-44.726,69.775-32.15,25.474,7.373,36.148,40.137,36.148,40.137,0,0-1.93-25.075-19.968-38.681-38.411-28.976-92.134-2.132-92.134-2.132Z" style="fill: #95344d;"/>
          <path d="M414.769,449.175c-21.12,0-38.26,17.141-38.26,38.261,0,5.859,1.312,11.413,3.673,16.397,4.897,1.356,10.318,2.362,16.047,2.712,1.312.087,2.624.174,3.979.174,11.806.131,22.301.656,30.959,1.662h.044c5.422.568,10.057,1.311,13.861,2.317,4.985-6.471,7.915-14.517,7.915-23.262,0-21.12-17.097-38.261-38.217-38.261Z" style="fill: #908d66;"/>
          <path d="M441.399,487.436c0,8.483-3.98,16.048-10.188,20.945h-.044c-8.658-1.006-19.152-1.53-30.959-1.662-1.354,0-2.666-.088-3.979-.174-5.028-4.854-8.132-11.631-8.132-19.109,0-14.736,11.937-26.673,26.672-26.673s26.63,11.937,26.63,26.673Z" style="fill: #eabfc2; mix-blend-mode: multiply;"/>
          <path d="M394.954,475.888s-5.061-16.706-21.761-11.28c0,0,7.232,14.289,21.761,11.28Z" style="fill: #fff;"/>
        </g>
        <g>
          <path d="M699.179,406.936s-36.21-18.158-106.901-21.832c0,0-14.575-13.565-17.854-32.67,0,0,80.801-10.358,124.755,54.502Z" style="fill: #ca4752;"/>
          <path d="M590.471,514.415s1.444,5.072,8.002,0c1.923-1.487,4.985-2.711,9.095-3.716,3.803-1.006,8.439-1.749,13.86-2.317h.044c8.658-1.006,19.153-1.53,30.959-1.662,1.355,0,2.666-.088,3.979-.174,5.729-.35,11.151-1.356,16.048-2.712,16.572-4.547,27.897-13.205,29.515-16.397,2.187-4.373,0-16.747-13.86-34.106-13.817-17.316-53.171-23.481-73.592-10.32-20.42,13.118-24.049,62.66-24.049,71.405Z" style="fill: url(#_8513);"/>
          <path d="M706.651,440.86s6.172,20.537-6.178,32.826c0,0-26.325-44.726-69.776-32.15-25.474,7.373-36.148,40.137-36.148,40.137,0,0,1.93-25.075,19.968-38.681,38.411-28.976,92.134-2.132,92.134-2.132Z" style="fill: #95344d;"/>
          <path d="M599.654,487.436c0,8.745,2.929,16.791,7.915,23.262,3.803-1.006,8.439-1.749,13.86-2.317h.044c8.658-1.006,19.153-1.53,30.959-1.662,1.355,0,2.666-.088,3.979-.174,5.729-.35,11.151-1.356,16.048-2.712,2.361-4.984,3.673-10.537,3.673-16.397,0-21.12-17.141-38.261-38.261-38.261s-38.216,17.141-38.216,38.261Z" style="fill: #908d66;"/>
          <path d="M611.24,487.436c0,8.483,3.98,16.048,10.188,20.945h.044c8.658-1.006,19.153-1.53,30.959-1.662,1.355,0,2.666-.088,3.979-.174,5.029-4.854,8.133-11.631,8.133-19.109,0-14.736-11.938-26.673-26.673-26.673s-26.63,11.937-26.63,26.673Z" style="fill: #eabfc2; mix-blend-mode: multiply;"/>
          <path d="M657.686,475.888s5.062-16.706,21.761-11.28c0,0-7.232,14.289-21.761,11.28Z" style="fill: #fff;"/>
        </g>
      </g>
    </g>
    <g id="Emma_x5F_Ogen_x5F_03_-_Wijd" style="display: none;">
      <g>
        <g>
          <path d="M369.277,399.366s39.542-14.297,87.449-14.912c0,0,12.246-14.758,14.706-32.588,0,0-44.611-1.558-72.552,14.757-27.941,16.315-29.602,32.743-29.602,32.743Z" style="fill: url(#_40611);"/>
          <path d="M465.513,504.492c-2.767-31.934-10.298-62.856-25.977-70.711-15.678-7.856-69.379-10.787-74.171,20.072-4.793,30.858,10.074,51.254,17.452,56.788,7.378,5.534,46.114,10.145,60.87,8.301,14.756-1.845,16.948,2.719,19.983.413,3.035-2.306,1.844-14.862,1.844-14.862Z" style="fill: url(#_8514);"/>
          <path d="M456.671,459.122s-2.554-25.34-32.397-37.162c-24.814-9.828-65.129,6.009-65.129,6.009,0,0-2.459,15.655,6.221,27.644,0,0,11.554-26.434,49.723-23.979,27.036,1.739,41.583,27.488,41.583,27.488Z" style="fill: #95344d;"/>
          <path d="M452.532,480.722c0,16.353-13.257,29.611-29.611,29.611s-29.611-13.257-29.611-29.611,13.257-29.611,29.611-29.611,29.611,13.257,29.611,29.611Z" style="fill: #908d66;"/>
          <path d="M442.041,480.722c0,10.56-8.56,19.12-19.12,19.12s-19.12-8.56-19.12-19.12,8.56-19.12,19.12-19.12,19.12,8.56,19.12,19.12Z" style="fill: #846a4e;"/>
          <path d="M395.615,456.992s14.488,1.647,16.141,15.805c0,0-11.203-1.976-16.141-15.805Z" style="fill: #fff;"/>
        </g>
        <g>
          <path d="M683.362,399.366s-39.542-14.297-87.449-14.912c0,0-12.246-14.758-14.706-32.588,0,0,44.611-1.558,72.552,14.757,27.941,16.315,29.602,32.743,29.602,32.743Z" style="fill: url(#_40612);"/>
          <path d="M587.126,504.492c2.767-31.934,10.299-62.856,25.977-70.711,15.679-7.856,69.379-10.787,74.171,20.072,4.793,30.858-10.074,51.254-17.452,56.788-7.378,5.534-46.114,10.145-60.87,8.301-14.756-1.845-16.948,2.719-19.983.413-3.035-2.306-1.844-14.862-1.844-14.862Z" style="fill: url(#_8515);"/>
          <path d="M595.969,459.122s2.554-25.34,32.397-37.162c24.814-9.828,65.129,6.009,65.129,6.009,0,0,2.459,15.655-6.221,27.644,0,0-11.554-26.434-49.723-23.979-27.036,1.739-41.583,27.488-41.583,27.488Z" style="fill: #95344d;"/>
          <path d="M600.107,480.722c0,16.353,13.257,29.611,29.611,29.611s29.612-13.257,29.612-29.611-13.258-29.611-29.612-29.611-29.611,13.257-29.611,29.611Z" style="fill: #908d66;"/>
          <path d="M610.598,480.722c0,10.56,8.56,19.12,19.12,19.12s19.12-8.56,19.12-19.12-8.56-19.12-19.12-19.12-19.12,8.56-19.12,19.12Z" style="fill: #846a4e;"/>
          <path d="M657.025,456.992s-14.487,1.647-16.141,15.805c0,0,11.203-1.976,16.141-15.805Z" style="fill: #fff;"/>
        </g>
      </g>
    </g>
    <g id="Emma_x5F_Ogen_x5F_02_-_Dicht" style="display: none;">
      <path d="M460.741,481.244s-16.824-16.686-48.924-16.686c-12.132,0-22.776,1.235-42.382,13.176,0,0,12.283-4.28,40.72-4.28,30.167,0,50.586,7.79,50.586,7.79Z" style="fill: #95344d;"/>
      <path d="M591.899,482.625s16.824-16.686,48.924-16.686c12.132,0,22.776,1.235,42.382,13.176,0,0-12.283-4.28-40.72-4.28-30.167,0-50.586,7.79-50.586,7.79Z" style="fill: #95344d;"/>
      <path d="M353.461,406.936s36.21-18.158,106.901-21.832c0,0,14.575-13.565,17.855-32.67,0,0-80.801-10.358-124.756,54.502Z" style="fill: #ca4752;"/>
      <path d="M699.179,406.936s-36.21-18.158-106.901-21.832c0,0-14.575-13.565-17.854-32.67,0,0,80.801-10.358,124.755,54.502Z" style="fill: #ca4752;"/>
    </g>
    <g id="Emma_x5F_Met_x5F_Mond_-_Blij" style="display: none;">
      <g>
        <path d="M602.784,237.058s-150.792-133.5-212.861-127.94-50.145,101.476-81.215,123.773c-31.071,22.298-46.322,13.89-69.207,48.668-22.885,34.777-7.749,194.455,16.394,242.113,24.144,47.658,346.89-286.613,346.89-286.613Z" style="fill: url(#_3794);"/>
        <path d="M783.635,128.872l-25.603-3.427S248.043,78.764,193.131,711.311l18.273,9.24L783.635,128.872Z" style="fill: url(#_2694);"/>
        <path d="M211.404,720.551s203.855,3.34,394.342-160.67c190.487-164.009,177.889-431.009,177.889-431.009,0,0-289.194,20.173-430.771,184.771-141.577,164.598-141.46,406.908-141.46,406.908Z" style="fill: #ff7a3f;"/>
        <path d="M692.889,279.674s-5.096-31.906-13.647-42.861c-8.553-10.955-158.483,20.238-228.035,65.673-69.551,45.435-111.066,77.354-125.807,192.711-11.248,88.017-21.916,141.248-21.916,141.248,0,0,342.717-227.7,389.405-356.772Z" style="fill: #ea8bc2; mix-blend-mode: multiply;"/>
        <path d="M721.459,815.606s-96.367-11.727-178.594-11.534c-82.227.193-185.037,46.903-185.037,46.903,0,0-63.533-18.951-79.917-50.422-16.386-31.471,13.385-108.8,39.166-218.499,25.781-109.697,45.036-161.879,45.036-161.879,0,0,83.255-123.742,186.631-130.742,103.377-7,147.867,18.53,164.354,51.505,16.486,32.974,16.572,105.7,32.528,145.411,15.955,39.71,54.532,110.339,44.856,162.919-9.676,52.581-69.023,166.337-69.023,166.337Z" style="fill: url(#_4715);"/>
        <path d="M632.356,872.578s-28.204,89.683-83.079,105.162c-75.823,21.426-133.366-120.597-133.366-120.597,0,0,46.612-10.976,57.543-29.603,5.422-9.226,5.466-41.409,4.154-71.536-1.354-30.696-4.154-59.293-4.154-59.293h101.533s-.743,25.273-1.268,53.652c-.611,35.506-.873,75.909,1.268,78.052,3.804,3.848,57.369,44.163,57.369,44.163Z" style="fill: #ff7d63;"/>
        <path d="M573.302,785.602s-46.676,5.919-96.634-47.35l-4.641-43.212s49.844,19.564,102.049,31.273l-.774,59.289Z" style="fill: #ea8bc2; mix-blend-mode: multiply;"/>
        <path d="M652.121,282.434c48.38,27.175,60.219,77.374,62.689,113.86,2.47,36.486-4.508,83.792,17.493,123.029,22.001,39.236,31.506,89.386-1.081,134.411-32.586,45.025-40.403,64.899-57.084,74.174-16.681,9.274-97.788,9.336-191.347-29.127-93.557-38.463-144.141-164.003-134.493-242.035,9.65-78.032,180.342-243.669,303.822-174.312Z" style="fill: #ffa476;"/>
        <path d="M385.522,555.361s-44.774-39.729-78.398-15.054c-33.626,24.676-.25,106.582,40.62,118.747,40.87,12.165,62.861-14.848,62.861-14.848,0,0-7.851-64.897-25.084-88.845Z" style="fill: #ffa476;"/>
        <path d="M317.033,837.617c27.843,25.52,52.733,29.638,55.765,29.97-19.694-8.338-38.026-23.541-40.304-25.428,26.74,20.328,108.711,4.031,108.711,4.031-33.512-23.524-37.326-49.703-37.326-49.703,37.19,28.648,71.245,18.927,71.245,18.927,0,0-61.266-31.854-62.884-147.813-1.725-115.951,30.691-226.047,30.691-226.047,49.72-48.182,76.418-130.055,76.418-130.055,0,0,151.125,1.911,188.329,43.455,15.338,17.017,11.001,57.719,22.932,103.768,11.923,45.942,40.276,53.588,46.223,141.418,5.947,87.831-73.875,202.533-73.875,202.533l18.501,12.933c34.238-11.776,43.686-21.443,44.79-22.592l-19.798,29.82s79.673-45.481,75.211-132.015c-4.576-86.634-64.367-168.132-61.884-201.293,2.591-33.169,23.274-46.641,21.372-85.845-2.017-39.306-37.369-50.419-61.631-88.111-24.268-37.798-55.424-66.21-132.838-57.207-77.421,8.897-219.053,102.743-237.708,168.489-18.654,65.745,13.414,107.637-8.574,184.462-21.881,76.818-53.044,199.08-23.366,226.303ZM730.829,339.738s27.635,24.029,35.828,56.145c8.293,32.002-15.764,67.162-13.599,84.855,0,0-6.164-28.045-12.337-66.854-6.167-38.702-9.891-74.147-9.891-74.147Z" style="fill: url(#_1024);"/>
        <path d="M707.678,354.954s-26.86,14.006-29.56,49.314c0,0,13.815-14.737,36.824-29.816,0,0,1.438-7.439-7.264-19.498Z" style="fill: url(#_501);"/>
        <path d="M588.637,339.029s.428,21.351-13.711,38.091c0,0-30.981,1.079-51.954,7.081-20.975,6.003-53.726,26.038-53.726,26.038,0,0,22.086-42.222,53.05-58.572,30.964-16.352,66.341-12.637,66.341-12.637Z" style="fill: url(#_40613);"/>
        <g>
          <path d="M630.084,542.89s-10.622,9.172-14.669,20.13c-4.046,10.958,7.077,20.011,19.266,12.792,12.189-7.219,16.949-6.397,15.753-1.336-1.197,5.063,6.353,10.304,24.435,9.145,18.082-1.16,35.477-18.213,29.5-35.254,0,0,11.32,30.093-29.962,39.479-41.282,9.386-48.762-8.247-63.21-13.6-14.449-5.355,18.886-31.355,18.886-31.355Z" style="fill: url(#_764); mix-blend-mode: multiply; opacity: .5;"/>
          <path d="M626.182,581.011s13.395-8.702,19.676-7.921c6.279.781,2.159,8.699-4.213,11.604-6.373,2.906-15.463-3.683-15.463-3.683Z" style="fill: url(#_3007); mix-blend-mode: multiply; opacity: .5;"/>
        </g>
        <path d="M666.34,730.582s-62.917-6.711-123.232-19.256c-60.315-12.546-111.247-45.081-111.247-45.081,0,0,24.81,29.207,101.698,51.093,83.989,23.907,132.782,13.244,132.782,13.244Z" style="fill: #f89867;"/>
        <path d="M440.576,674.4s-22.213-59.213-17.787-142.122c0,0-14.868,66.882-12.184,111.929,0,0,16.691,25.999,29.97,30.194Z" style="fill: #ea8bc2; mix-blend-mode: multiply;"/>
        <path d="M335.596,171.69s-9.994,70.131-28.992,105.324c-18.998,35.194-57.923,31.72-58.54,22.599-.618-9.122,23.368-33.485,51.75-60.907,28.381-27.421,35.783-67.016,35.783-67.016Z" style="fill: #f89867;"/>
        <path d="M721.459,815.606s66.494-59.77,75.287-118.399c8.792-58.629-8.315-122.799-8.315-122.799,0,0,25.498,67.796,21.694,116.863-3.805,49.067-43.876,101.743-43.876,101.743,0,0-31.939,24.048-44.79,22.592Z" style="fill: #cc3b45;"/>
        <path d="M403.879,796.487s-31.001-51.343-33.059-104.602c-2.06-53.259,30.83-152.227,42.411-215.108,0,0-38.991,124.646-56.5,203.3-17.51,78.654-10.081,147.757,84.474,166.113,0,0-23.547-22.063-37.326-49.703Z" style="fill: #cc3b45;"/>
        <path d="M442.931,441.554s-69.073,70.002-96.206,81.241l4.067,14.358s49.203-17.31,92.138-95.598Z" style="fill: #c43f4b;"/>
        <path d="M519.349,311.499s-95.784,135.489-176.333,153.116l1.128,32.423s118.764-71.707,175.205-185.539Z" style="fill: #c43f4b;"/>
        <path d="M707.678,354.954s-2.518-57.444-49.937-72.9c-47.418-15.455-138.391,29.445-138.391,29.445,0,0,127.864-17.442,188.329,43.455Z" style="fill: #a62f3c;"/>
        <path d="M711.105,303.357s-115.771-8.273-218.227,52.805c-102.455,61.079-159.199,159.707-159.199,159.707l9.242-33.305s-36.639-58.608,91.955-159.966c128.595-101.358,239.336-61.923,246.114-52.808,6.78,9.115,30.114,33.568,30.114,33.568Z" style="fill: #861e36;"/>
        <image width="313" height="169" transform="translate(440 485)" xlink:href="layer7-Emma-Met-Mond---Sip-6.png" style="mix-blend-mode: multiply;"/>
        <g>
          <path d="M582.929,521.856c-5.98-4.345-29.94,7.226-60.527,6.495h-.301c-30.413-.903-51.235-25.337-52.869-28.908-2.968-6.582-2.882-18.24.086-30.672,5.421-22.756,20.434-48.05,43.62-49.083,36.179-1.635,61.773,28.391,68.27,49.169,6.495,20.735,11.313,59.924,1.72,52.998Z" style="fill: url(#_8516);"/>
          <path d="M575.894,456.063s-15.024-42.274-62.955-36.374c-30.521,3.756-64.901,16.706-64.901,16.706,0,0,8.903,18.783,21.28,32.377,0,0,15.501-38.639,55.994-37.294,36.844,1.224,50.581,24.585,50.581,24.585Z" style="fill: #95344d;"/>
          <path d="M548.257,489.334c0,17.637-10.798,32.694-26.155,39.017-30.413-.903-51.235-25.337-52.869-28.908-2.968-6.582-1.261-19.458,3.398-31.36,5.379-13.738,17.68-20.863,33.469-20.863,13.161,0,24.905,6.023,32.605,15.443,1.292,1.592,2.453,3.226,3.529,4.99,3.827,6.323,6.022,13.766,6.022,21.681Z" style="fill: #908d66;"/>
          <path d="M534.936,489.353c0,15.928-12.912,28.84-28.841,28.84s-28.84-12.912-28.84-28.84,12.912-28.841,28.84-28.841,28.841,12.912,28.841,28.841Z" style="fill: #eabfc2; mix-blend-mode: multiply;"/>
          <path d="M545.118,460.512c.492-1.642-16.132,3.844-18.82,20.226,0,0,13.259-1.685,18.82-20.226Z" style="fill: #fff;"/>
        </g>
        <g>
          <path d="M721.445,493.55c-.517,7.442-5.894,12.217-12.044,15.53-6.066,3.269-12.863,5.118-16.518,6.797-1.033.473-2.151-1.119-3.226-4.13-3.657-10.066-6.927-36.264-4.474-55.277.687-5.162,1.807-9.808,3.441-13.422.688-1.506,1.462-2.882,2.323-4.001,14.798-19.143,25.768-16.432,29.167,8.173,2.751,20.132,2.71,26.8,1.332,46.33Z" style="fill: url(#_8517);"/>
          <path d="M685.948,455.178s-1.193-18.584,18.65-32.566c11.137-7.849,25.325-9.077,36.123-8.727l-25.044,28.889-.135-8.435c-8.122-3.233-29.607,6.338-29.594,20.84Z" style="fill: #95344d;"/>
          <path d="M715.036,483.914c0,9.507-2.109,18.24-5.636,25.166-6.066,3.269-12.863,5.118-16.518,6.797-1.033.473-2.151-1.119-3.226-4.13-3.657-10.066-6.927-36.264-4.474-55.277.687-5.162,1.807-9.808,3.441-13.422h.042c8.217,0,15.573,5.85,20.391,15.013.817,1.506,1.548,3.14,2.193,4.818,2.412,6.151,3.787,13.336,3.787,21.035Z" style="fill: #908d66;"/>
          <path d="M706.691,483.914c0,14.927-7.573,27.101-17.035,27.833-3.657-10.066-6.927-36.264-4.474-55.277,1.118-.345,2.279-.516,3.483-.516,5.98,0,11.271,4.517,14.497,11.443.862,1.763,1.593,3.656,2.109,5.721.903,3.312,1.42,6.969,1.42,10.797Z" style="fill: #eabfc2; mix-blend-mode: multiply;"/>
          <path d="M713.075,455.958c.308-1.592-10.1,3.725-11.783,19.598,0,0,8.301-1.633,11.783-19.598Z" style="fill: #fff;"/>
        </g>
        <g>
          <path d="M583.605,636.466c19.114,30.108,63.718,71.036,91.391,60.187,27.342-10.718,12.749-41.658,14.085-47.958,4.11-19.38,13.062-24.526,15.5-35.648l-34.398-10.677s-89.148,30.047-86.578,34.096Z" style="fill: #95344d;"/>
          <path d="M592.929,631.641c2.613-.873,39.512.113,73.054-2.522,26.054-2.047,32.729-6.308,32.729-6.308l3.202-10.593s-9.93-17.928-38.53-4.533c-28.6,13.394-70.454,23.955-70.454,23.955Z" style="fill: #fff;"/>
          <path d="M583.605,636.466c1.71,2.919,24.271,70.33,70.225,74.026,44.462,3.577,37.096-47.779,37.096-47.779,0,0-.333,22.784-24.803,25.139-48.912,4.707-82.517-51.386-82.517-51.386Z" style="fill: #ff524c;"/>
          <path d="M675.215,682c16.912-4.532-4.985-37.113-20.902-42.135-15.917-5.023-62.365-10.172-63.395-3.876-1.031,6.296,14.492,31.736,39.598,41.842,25.106,10.106,35.87,6.535,44.699,4.169Z" style="fill: #ffc7ac; mix-blend-mode: overlay; opacity: .5;"/>
          <g>
            <path d="M566.072,625.887c-.138-.187-.293-.373-.41-.562,0,0,.122.221.41.562Z" style="fill: #e0223b;"/>
            <path d="M704.421,616.272c2.667-11.317-10.858-17.949-27.981-16.912-17.123,1.037-44.447,12.382-58.522,17.47-34.013,12.297-49.871,11.394-51.846,9.057,4.165,5.67,17.532,10.579,17.532,10.579,37.557-14.035,81.036-25.443,89.696-26.008,32.437-2.117,28.177,10.544,28.177,10.544,8.42-2.46,11.883-11.018,11.883-11.018,0,0-6.857,6.74-8.94,6.288Z" style="fill: #e0223b;"/>
          </g>
        </g>
      </g>
    </g>
    <g id="Emma_x5F_Met_x5F_Mond_-_Sip">
      <g>
        <g>
          <path d="M767.499,238.92l-170.539-113.083s30.456-25.613,58.749-34.699c10.515-3.387,20.698-4.502,28.909-1.161,17.954,7.274,32.171,20.888,43.377,37.094l.079.062c31.73,45.752,39.425,111.787,39.425,111.787Z" style="fill: url(#_3795);"/>
          <path d="M767.499,238.92l-170.539-113.083s30.456-25.613,58.749-34.699l.268,2.486c16.057,40.783,72.018,33.447,72.018,33.447l.079.062c31.73,45.752,39.425,111.787,39.425,111.787Z" style="fill: #fa8a3f;"/>
          <path d="M251.001,368.314l-4.937,47.787s104.868-192.578,298.542-264.341c0,0,263.082,233.651,334.497,536.747l14.581-33.698s45.505-243.388-75.575-405.473c-101.649-136.074-278.384-170.448-287.186-172.26-8.802-1.811-103.842,22.143-197.069,140.269-75.117,95.178-82.852,150.969-82.852,150.969Z" style="fill: url(#_2695);"/>
          <path d="M247.525,406.481c-29.744,159.133,159.875,308.363,299.074,359.676,152.272,56.133,290.683-3.997,332.504-77.65,0,0,109.771-496.207-355.254-591.915,0,0-232.497,75.41-276.324,309.889Z" style="fill: #ff7a3f;"/>
          <path d="M536.453,191.368c-44.817,12.659-138.957,78.389-179.224,174.518-40.267,96.13,52.788,220.344,176.145,260.068,123.356,39.723,246.68-14.049,264.034-53.471,17.354-39.423,28.858-190.589-50.552-281.555-79.411-90.966-195.009-103.907-210.403-99.559Z" style="fill: #ea8bc2; mix-blend-mode: multiply;"/>
        </g>
        <path d="M340.382,779.987c52.048-.284,216.144,13.156,312.422,53.305,0,0,113.997,3.192,143.031-17.156,23.847-16.712,41.803-50.509,12.788-169.659-17.918-73.577-10.386-121.807-12.148-191.726-1.761-69.919-55.277-186.646-144.816-208.515-89.539-21.869-247.748,54.255-272.444,108.704-55.109,121.508-142.586,197.107-157.344,241.114-38.81,115.732,118.511,183.932,118.511,183.932Z" style="fill: url(#_4716);"/>
        <path d="M632.419,872.08s-28.204,89.683-83.079,105.162c-75.823,21.426-133.366-120.597-133.366-120.597,0,0,46.612-10.976,57.543-29.603,5.422-9.226,5.466-41.409,4.154-71.536-1.354-30.696-4.154-59.293-4.154-59.293h101.533s-.743,25.273-1.268,53.652c-.611,35.506-.873,75.909,1.268,78.052,3.804,3.848,57.369,44.163,57.369,44.163Z" style="fill: #ff7d63;"/>
        <path d="M576.837,699.33s-.764,25.97-1.303,55.131c-46.773,61.6-82.233,54.243-98.759,5.796-1.392-31.541-4.268-60.926-4.268-60.926h104.33Z" style="fill: #ea8bc2; mix-blend-mode: multiply;"/>
        <g>
          <path d="M747.086,564.698s36.494-13.865,48.101-10.829c11.608,3.037,16.835,27.433,15.434,44.635-1.401,17.202-63.12,86.768-102.566,74.115l39.031-107.921Z" style="fill: #ffa476;"/>
          <path d="M374.71,488.058s-28.052-27.151-39.916-28.945c-11.863-1.794-26.299,18.555-31.805,34.913-5.506,16.357,23.726,104.642,64.963,108.594l6.758-114.562Z" style="fill: #ffa476;"/>
          <path d="M722.418,658.553c-16.85,23.918-47.573,43.926-81.357,58.074l-.054.035c-44.18,18.523-93.528,26.945-124.027,20.667-29.485-6.068-69.798-31.751-102.526-64.634-26.998-27.071-48.814-59.039-55.107-88.867-13.951-65.946,71.822-303.943,75.958-307.771,62.101-57.45,179.579-27.354,179.579-27.354,0,0,124.922,19.793,159.288,97.097,2.289,5.15-12.894,257.675-51.754,312.752Z" style="fill: #ffa476;"/>
          <path d="M381.541,444.66s-15.726,139.831,9.552,201.562c0,0-20.394-25.653-26.07-44.024,0,0-7.036-.825-17.213-8.392,0,0,6.268-40.307,17.724-86.115,11.456-45.809,16.007-63.031,16.007-63.031Z" style="fill: #ea8bc2; mix-blend-mode: multiply;"/>
          <path d="M742.825,565.067s-26.112,91.644-73.714,138.375c0,0,16.97-7.642,41.336-30.151,0,0,8.566,3.196,21.983-1.462,0,0,3.223-15.14,5.471-39.187,4.397-47.014,4.923-67.576,4.923-67.576Z" style="fill: #ea8bc2; mix-blend-mode: multiply;"/>
          <path d="M641.007,716.662c-44.18,18.523-93.528,26.945-124.027,20.667-29.485-6.068-69.798-31.751-102.526-64.634l.009-.044c26.75,24.038,76.341,48.327,104.002,57.461,27.231,8.999,119.756-12.831,122.542-13.45Z" style="fill: #f89867;"/>
          <g>
            <path d="M599.093,570.553s.921,5.923,1.272,12.877c.352,6.953-.036,10.572-7.563,10.757-6.106.151-16.891-3.406-22.205-2.577-5.313.83,1.704,7.205-1.134,9.412-7.643,5.947-19.661,7.552-25.727,6.303-6.065-1.248-16.471-7.469-21.145-15.951-1.736-3.149,7.228-6.235,2.675-9.095-4.554-2.86-16.003-2.24-22.274-6.577-5.136-3.553-4.915-6.445-1.844-12.694,3.068-6.25,6.253-11.328,6.253-11.328-17.083,13.686-12.452,21.289-10.995,22.497,1.456,1.209,19.678,20.864,27.333,26.344,4.385,3.14,14.514,7.366,19.664,8.426,5.149,1.06,16.125,1.176,21.392.024,9.197-2.012,33.699-12.874,35.515-13.41,1.815-.535,9.072-5.691-1.216-25.01Z" style="fill: url(#_765); mix-blend-mode: multiply; opacity: .5;"/>
            <path d="M590.329,597.105c-10.26-4.702-18.94-2.843-18.489.163.451,3.005,2.271,5.38,5.071,5.294,6.827-.213,13.418-5.457,13.418-5.457Z" style="fill: url(#_3008); mix-blend-mode: multiply; opacity: .5;"/>
            <path d="M508.249,583.981c-3.117-5.538,16.448-.671,15.938,1.805-.51,2.476-6.533,5.751-8.908,4.295-2.375-1.456-4.484-1.576-7.03-6.099Z" style="fill: url(#_3009); mix-blend-mode: multiply; opacity: .5;"/>
          </g>
          <image width="358" height="178" transform="translate(372 491)" xlink:href="layer7-Emma-Met-Mond---Sip-7.png" style="mix-blend-mode: multiply;"/>
          <g>
            <path d="M417.895,371.084s64.968-5.634,94.84-4.884c0,0,29.439-19.921,33.778-37.98,0,0-60.506-3.915-128.618,42.864Z" style="fill: url(#_40614);"/>
            <path d="M500.074,503.614s-17.334,3.314-33.67,4.676c-1.825.175-3.64.306-5.404.401-11.053.661-27.92-2.306-41.234-5.826l-.043-.009c-8.043-2.16-14.806-4.515-18.178-6.402-9.11-4.994-14.257-20.779-14.257-20.779,0,0,10.339-10.12,17.025-14.295,1.636-1.039,4.664-2.159,8.627-3.132,5.496-1.301,12.826-2.361,20.667-2.352,9.465-.07,19.767,1.362,28.705,5.403,1.591.74,3.129,1.516,4.613,2.326,6.959,3.863,12.879,8.751,17.558,13.43,8.105,8.09,12.645,15.447,12.645,15.447l2.943,11.111Z" style="fill: url(#_8518);"/>
            <path d="M483.725,483.643c-2.201,10.694-8.716,19.399-17.321,24.647-1.825.175-3.64.306-5.404.401-11.053.661-27.92-2.306-41.234-5.826l-.043-.009c-8.756-8.729-13.045-21.539-10.373-34.521.743-3.609,1.987-6.977,3.59-10.087,5.496-1.301,12.826-2.361,20.667-2.352,9.465-.07,19.767,1.362,28.705,5.403,1.591.74,3.129,1.516,4.613,2.326,6.959,3.863,12.879,8.751,17.558,13.43-.04,2.194-.307,4.386-.76,6.587Z" style="fill: #908d66;"/>
            <path d="M469.905,480.799c-2.654,12.895-15.283,21.214-28.176,18.56-12.941-2.664-21.258-15.293-18.604-28.187,1.35-6.558,5.25-11.902,10.483-15.274,9.465-.07,19.767,1.362,28.705,5.403,1.591.74,3.129,1.516,4.613,2.326,3.012,4.978,4.238,11.056,2.979,17.173Z" style="fill: #eabfc2; mix-blend-mode: multiply;"/>
            <path d="M497.136,492.511s-9.05-24.078-34.433-37.071c-23.982-12.276-45.76-11.584-50.617-10.29-4.857,1.294-20.223,6.42-28.74,10.227,0,0-1.619,10.922,3.953,20.287,0,0,11.483-10.58,35.627-14.246,15.731-2.389,39.32,1.81,53.792,13.176,14.472,11.366,20.418,17.918,20.418,17.918Z" style="fill: #95344d;"/>
            <path d="M752.641,439.979s-57.463-30.833-85.203-41.939c0,0-19.179-29.927-16.035-48.233,0,0,57.134,20.297,101.238,90.172Z" style="fill: url(#_40615);"/>
            <path d="M624.805,529.285s14.616,9.89,29.086,17.592c1.609.882,3.224,1.719,4.807,2.504,9.894,4.972,26.562,8.907,40.183,10.931l.043.009c8.241,1.191,15.385,1.698,19.229,1.296,10.342-.991,21.303-13.46,21.303-13.46,0,0-5.503-13.38-9.996-19.856-1.093-1.601-3.432-3.826-6.689-6.285-4.535-3.364-10.851-7.233-18.059-10.322-8.668-3.802-18.698-6.555-28.506-6.372-1.753.053-3.472.157-5.156.315-7.919.802-15.288,2.954-21.435,5.405-10.642,4.232-17.718,9.197-17.718,9.197l-7.092,9.045Z" style="fill: url(#_8519);"/>
            <path d="M647.712,517.394c-2.201,10.694.348,21.264,6.179,29.483,1.609.882,3.224,1.719,4.807,2.504,9.894,4.972,26.562,8.907,40.183,10.931l.043.009c11.491-4.562,20.49-14.637,23.162-27.619.743-3.609.93-7.195.685-10.686-4.535-3.364-10.851-7.233-18.059-10.322-8.668-3.802-18.698-6.555-28.506-6.372-1.753.053-3.472.157-5.156.315-7.919.802-15.288,2.954-21.435,5.405-.83,2.031-1.45,4.151-1.903,6.352Z" style="fill: #908d66;"/>
            <path d="M661.531,520.238c-2.654,12.895,5.664,25.524,18.557,28.178,12.94,2.663,25.57-5.655,28.224-18.55,1.35-6.557-.123-13.007-3.6-18.172-8.668-3.802-18.698-6.555-28.506-6.372-1.753.053-3.472.157-5.156.315-4.732,3.384-8.26,8.484-9.518,14.601Z" style="fill: #eabfc2; mix-blend-mode: multiply;"/>
            <path d="M631.888,520.245s17.823-18.548,46.274-20.462c26.881-1.808,46.616,7.428,50.567,10.535,3.951,3.107,16.044,13.885,22.365,20.745,0,0-2.826,10.674-11.643,17.077,0,0-6.371-14.255-27.105-27.157-13.509-8.407-36.838-13.864-54.623-9.137-17.784,4.727-25.835,8.399-25.835,8.399Z" style="fill: #95344d;"/>
            <path d="M399.915,480.936s12.281-9.698,27.916-2.088c0,0-4.547,9.775-27.916,2.088Z" style="fill: #fff;"/>
            <path d="M727.48,548.353s-7.453-13.76-24.822-12.942c0,0,.317,10.777,24.822,12.942Z" style="fill: #fff;"/>
          </g>
          <g>
            <path d="M539.318,628.888s-38.026-6.098-70.736,22.148c0,0,34.827-11.181,67.111-4.537,32.285,6.644,59.865,30.67,59.865,30.67-18.898-38.867-56.241-48.281-56.241-48.281Z" style="fill: #e0223b;"/>
            <path d="M530.065,674.809c24.902,4.964,56.259-4.586,56.259-4.586-21.814-19.281-48.645-23.45-50.628-23.735-1.935-.521-28.232-7.286-55.887,1.814,0,0,25.038,21.156,49.876,26.429l-.002.014c.063.013.128.02.191.032.064.013.126.033.189.046l.003-.014Z" style="fill: #ff524c;"/>
          </g>
        </g>
        <g>
          <path d="M792.172,833.831c-26.737,33.627-93.135,27.484-93.135,27.484l21.437-31.048s-46.357,18.396-83.058,7.264c0,0,83.656-21.545,101.442-214.495,5.554-60.419,8.007-163.724,8.007-163.724,0,0-41.961-83.867-58.205-136.891-1.299-4.166-2.369-8.103-3.309-11.782,0,0-18.717-3.119-48.136-3.714-58.23-1.251-158.364,7.408-237.498,69.609,0,0-3.435,12.458-8.601,31.763-11.745,43.914-32.287,123.221-41.042,171.329-16.899,92.809,7.739,182.607,18.531,219.324,0,0-83.866-19.783-101.604-45.041,0,0-13.88-44.004-14.431-63.614,0,0-1.94,31.712,4.76,54.881,0,0-71.495-46.459-5.728-157.835,27.889-47.243,76.217-142.529,90.008-183.682,1.058-3.132,2.158-6.253,3.286-9.279,0,0,.009-.043.061-.079,27.251-73.339,79.083-123.911,121.346-146.269,65.621-34.661,137-44.696,215.504-5.098,65.121,32.853,108.876,106.218,117.575,184.983,3.15,29.044,1.621,48.729-.908,69.494-4.352,36.078-11.629,75.453-1.803,172.799,7.398,73.497.017,157.944-4.5,163.62Z" style="fill: url(#_1025);"/>
          <path d="M267.005,753.889c9.548-150.403,60.151-243.967,60.151-243.967,0,0-71.66,51.002-74.585,180.373l14.435,63.594Z" style="fill: #cc3b45;"/>
          <path d="M685.364,310.649s-98.196-75.942-166.674-55.262c-68.478,20.68-118.973,121.147-118.973,121.147,0,0,103.003-88.131,285.647-65.885Z" style="fill: #a62f3c;"/>
          <path d="M720.458,830.26c38.792-60.913,56.206-166.636,47.038-228.551-9.167-61.916,2.811-126.514,2.811-126.514,0,0,12.998,190.752,11.65,262.999-1.348,72.248-82.921,123.121-82.921,123.121l21.421-31.055Z" style="fill: #cc3b45;"/>
          <path d="M688.672,322.427c57.738,63.533,111.385,112.567,111.385,112.567l.92,14.933s-34.298-34.294-64.954-58.078c-30.656-23.784-47.351-69.423-47.351-69.423Z" style="fill: #c43f4b;"/>
          <path d="M746.84,459.329c19.397,46.977,48.163,59.83,48.163,59.83l1.673-23.045-49.837-36.785Z" style="fill: #c43f4b;"/>
          <path d="M796.674,496.124s-40.786-163.27-159.46-189.2c-182.107-39.789-244.198,3.369-244.198,3.369,23.491-28.805,49.858-49.868,73.286-62.261,65.621-34.661,137-44.696,215.504-5.098,65.121,32.853,108.876,106.218,117.575,184.983,3.15,29.044-2.708,68.206-2.708,68.206Z" style="fill: #861e36;"/>
          <path d="M368.605,798.95s-37.592-32.875-61.401-113.557c-23.764-80.673,36.218-169.064,84.174-281.491l-.262,4.396c-11.745,43.914-32.287,123.221-41.042,171.329-16.899,92.809,7.739,182.607,18.531,219.324Z" style="fill: url(#_3023); mix-blend-mode: multiply; opacity: .5;"/>
        </g>
      </g>
    </g>
    <g id="Emma_x5F_Mond_x5F_01_-_SmalOpen" style="display: none;">
      <g>
        <path d="M469.67,637.715c2.609-.567,29.057-17.559,57.278-17.559s58.323,17.559,58.323,17.559c0,0-26.592,35.164-56.586,35.164s-59.014-35.164-59.014-35.164Z" style="fill: #95344d;"/>
        <path d="M560.477,619.565c-12.668-8.508-25.9-12.478-33.008-12.478s-20.34,3.97-33.008,12.478c-12.668,8.507-27.447,18.149-27.447,18.149,0,0,11.084,0,26.919-6.806s33.536-6.239,33.536-6.239c0,0,17.701-.567,33.535,6.239,15.835,6.806,26.919,6.806,26.919,6.806,0,0-14.78-9.642-27.447-18.149Z" style="fill: #e0223b;"/>
        <path d="M585.27,637.715s-1.355,2.719-21.641,16.684c-20.288,13.965-35.991,14.26-35.991,14.26,0,0-16.039-.295-36.328-14.26-20.288-13.966-21.641-16.684-21.641-16.684,0,0,28.624,60.2,57.632,60.665l-.002.022c.058,0,.113-.01.169-.011.058,0,.113.011.169.011v-.022c29.007-.465,57.632-60.665,57.632-60.665Z" style="fill: #ff524c;"/>
        <path d="M493.934,630.909s17.668,3.025,67.071,0c0,0-17.787-8.507-33.535-8.507s-33.536,8.507-33.536,8.507Z" style="fill: #fff;"/>
        <path d="M531.487,666.657c15.68-1.8,42.183-16.365,35.679-20.139-15.167-8.802-46.863-6.97-63.672,7.882-3.77,3.331,12.313,14.058,27.993,12.257Z" style="fill: #ffc7ac; mix-blend-mode: overlay; opacity: .3;"/>
      </g>
    </g>
    <g id="Emma_x5F_Mond_x5F_02_-_BreedOpen" style="display: none;">
      <g>
        <path d="M528.515,681.979c44.512,0,86.465-58.281,86.465-58.281,0,0-77.703-26.269-172.929,0,0,0,36.136,58.281,86.465,58.281Z" style="fill: #95344d;"/>
        <path d="M468.985,639.557c-5.641,10.53,30.372,39.931,55.575,40.733,25.203.801,61.391-22.265,50.405-32.79-10.986-10.525-100.96-17.315-105.981-7.943Z" style="fill: #ffc7ac; mix-blend-mode: overlay; opacity: .5;"/>
        <path d="M452.022,621.897s5.58,1.8,9.249,3.08c0,0,79.119,5.843,137.942.202l7.521-3.724c-.159-.006-83.948-20.071-154.711.442Z" style="fill: #fff;"/>
        <path d="M573.409,667.083c-3.231,1.342-23.426,11.816-45.317,11.816s-42.085-10.474-45.316-11.816c-3.231-1.342,32.388,22.145,45.316,22.145s48.548-23.487,45.317-22.145Z" style="fill: #fff;"/>
        <path d="M622.657,620.636s-20.404-1.836-30.235-4.25c-9.537-2.342-34.799-10.818-63.907-10.818-25.617,0-54.455,8.06-63.9,10.34-10.959,2.646-30.242,4.728-30.242,4.728l7.677,3.061c80.641-14.926,102.242-10.68,172.929,0l7.677-3.061Z" style="fill: #e0223b;"/>
        <path d="M603.404,636.784c-26.985,29.102-49.211,45.194-74.889,45.194s-48.75-14.676-75.735-43.778c-1.292-1.394,30.58,61.628,75.739,61.628s76.178-64.439,74.885-63.045Z" style="fill: #ff524c;"/>
      </g>
    </g>
    <g id="Emma_x5F_Mond_x5F_03_-_Sip" style="display: none;">
      <g>
        <path d="M527.531,620.569s-38.037,2.39-63.466,36.778c0,0,31.187-18.375,63.8-18.988,32.613-.613,64.468,16.578,64.468,16.578-26.703-33.409-64.803-34.368-64.803-34.368Z" style="fill: #e0223b;"/>
        <path d="M528.594,666.914c25.12-.629,53.313-16.673,53.313-16.673-25.255-13.865-52.065-12.049-54.042-11.894-1.981-.081-28.84-.889-53.557,13.916,0,0,28.776,14.974,53.902,14.658v.014c.064-.001.129-.009.193-.011.064,0,.128.004.192.003v-.014Z" style="fill: #ff524c;"/>
      </g>
    </g>
    <g id="Emma_x5F_Mond_x5F_03_-_Neutraal_Dicht" style="display: none;">
      <g>
        <path d="M560.477,627.657c-12.668-8.508-25.9-5.956-33.008-5.956s-20.34-2.552-33.008,5.956c-12.668,8.507-27.447,14.149-27.447,14.149,0,0,11.084,4,26.919-2.806s33.536.283,33.536.283c0,0,17.701-7.09,33.535-.283,15.835,6.806,26.919,2.806,26.919,2.806,0,0-14.78-5.642-27.447-14.149Z" style="fill: #e0223b;"/>
        <path d="M587.924,641.806s-5.13,2.926-24.296-2.806c-23.597-7.058-35.991.283-35.991.283,0,0-10.286-7.917-33.704-.283-21.641,7.055-26.919,2.806-26.919,2.806,0,0,30.664,27.651,59.672,28.117h0c.058,0-.055,0,0,0,.058,0-.056,0,0,0,29.007-.465,61.238-28.117,61.238-28.117Z" style="fill: #ff524c;"/>
      </g>
    </g>
    <g id="Emma_x5F_Mond_x5F_05_-_Lach" style="display: none;">
      <g>
        <path d="M442.202,604.666s39.892,65.625,86.312,65.625,86.312-65.625,86.312-65.625c0,0-39.332,25.331-86.312,25.331s-86.312-25.331-86.312-25.331Z" style="fill: #95344d;"/>
        <path d="M482.604,640.895c-4.58,5.198,32.129,21.378,44.041,21.741,11.911.362,41.34-13.406,44.041-18.842,2.7-5.435-83.932-7.609-88.082-2.899Z" style="fill: #ffc7ac; mix-blend-mode: overlay; opacity: .3;"/>
        <path d="M588.254,612.68c-26.715,8.117-59.74,5.529-59.74,5.529,0,0-33.025,2.588-59.74-5.529-26.717-8.117-30.994-11.354-30.994-11.354,0,0,40.971,33.765,90.735,33.765s90.734-33.765,90.734-33.765c0,0-4.278,3.237-30.994,11.354Z" style="fill: #e0223b;"/>
        <path d="M528.514,665.172s-45.205-4.16-86.312-60.506c0,0,27.309,81.16,86.312,81.16s86.312-81.16,86.312-81.16c-41.107,56.346-86.312,60.506-86.312,60.506Z" style="fill: #ff524c;"/>
        <path d="M592.562,618.213s-10.044,11.261-26.133,20.088c-10.435,5.826-23.437,10.565-37.915,10.565-15.131,0-28.653-5.218-39.35-11.348v-.044c-15.218-8.696-24.696-19.262-24.696-19.262,9.696,5.043,19.088,8.565,27.523,11.087h.044c21.174,6.217,36.48,5.783,36.48,5.783,0,0,13.652.391,33.002-4.826,9.305-2.478,19.957-6.305,31.045-12.044Z" style="fill: #fff;"/>
        <path d="M464.468,618.213c9.696,5.043,19.088,8.565,27.523,11.087h-.305s-3.609,1.13-2.522,8.174c-15.218-8.696-24.696-19.262-24.696-19.262Z" style="fill: #861e36;"/>
        <path d="M592.562,618.213s-10.044,11.261-26.133,20.088c0,0,.303-4.435-4.913-8.044,9.305-2.478,19.957-6.305,31.045-12.044Z" style="fill: #861e36;"/>
      </g>
    </g>
  </g>
</svg>